<svg width="719" height="534" viewBox="0 0 719 534" fill="none" xmlns="http://www.w3.org/2000/svg"><rect x="110" y="418.73" width="314.73" height="499.311" rx="17.453" transform="rotate(-90 110 418.73)" fill="url(#a)" fill-opacity=".01" shape-rendering="crispEdges"/><rect x="110" y="418.73" width="314.73" height="499.311" rx="17.453" transform="rotate(-90 110 418.73)" stroke="#fff" stroke-opacity=".1" shape-rendering="crispEdges"/><g filter="url(#b)"><rect x="154.715" y="201.284" width="66.284" height="47.415" rx="8.467" fill="url(#c)"/><rect x="154.715" y="201.284" width="66.284" height="47.415" rx="8.467" fill="#FFC700" fill-opacity=".27"/></g><path d="M154.639 217.695h22.54c1.427-4.383 5.439-13.414 10.073-14.475 1.721.603 5.742 2.774 8.059 6.634m-40.672 23.041h22.54c0 7.527 6.715 13.028 10.073 14.837 5.642-1.834 9.99-10.656 11.459-14.837h22.288m0-11.581h-22.288c-1.007-1.89-2.417-6.248 0-8.565" stroke="url(#d)" stroke-width=".726"/><path fill-rule="evenodd" clip-rule="evenodd" d="M569.472 345.483a1.864 1.864 0 0 1 2.532.736c3.029 5.514 7.159 19.91.04 34.433a1.866 1.866 0 0 1-3.349-1.642c6.442-13.14 2.661-26.226.04-30.995a1.865 1.865 0 0 1 .737-2.532m-7.064 3.191a1.865 1.865 0 0 1 2.506.821c2.363 4.665 5.647 16.663.004 27.949a1.863 1.863 0 1 1-3.335-1.667c4.933-9.868 2.048-20.561.004-24.597a1.865 1.865 0 0 1 .821-2.506m-6.637 4.082a1.865 1.865 0 0 1 2.519.781c.959 1.824 2.049 4.927 2.368 8.54.321 3.629-.129 7.887-2.396 11.892a1.864 1.864 0 1 1-3.245-1.837c1.801-3.182 2.2-6.636 1.927-9.727-.275-3.108-1.219-5.734-1.954-7.131a1.864 1.864 0 0 1 .781-2.518m-7.495 3.918c.9-.5 2.035-.176 2.536.725.675 1.214 1.44 3.221 1.666 5.483.227 2.276-.081 4.977-1.779 7.354a1.864 1.864 0 1 1-3.035-2.168c1.014-1.419 1.272-3.125 1.103-4.816-.17-1.704-.76-3.223-1.215-4.042a1.865 1.865 0 0 1 .724-2.536" fill="#fff"/><path d="m327.512 361.02 4.305-12.808h-2.92l-2.929 10.047h-.062l-2.929-10.047h-3l4.305 12.808zm12.621 0h2.849l-4.456-12.808h-3.15l-4.447 12.808h2.752l.976-3.107h4.5zm-3.257-10.358h.062l1.642 5.245h-3.346zm15.7 8.139h-5.6v-10.589h-2.681v12.808h8.281zm4.269 2.219v-12.808h-2.68v12.808zm2.13-12.808v12.808h4.891c3.843 0 6.106-2.388 6.106-6.453s-2.263-6.355-6.106-6.355zm2.681 2.21h1.89c2.361 0 3.692 1.474 3.692 4.154 0 2.769-1.296 4.225-3.692 4.225h-1.89zm-200.812 8.8c2.862 0 4.859-1.649 5.133-4.252h-2.376c-.259 1.382-1.302 2.231-2.749 2.231-1.867 0-3.039-1.536-3.039-4.026 0-2.457 1.188-4.001 3.031-4.001 1.423 0 2.522.937 2.749 2.368h2.376c-.186-2.611-2.32-4.389-5.125-4.389-3.379 0-5.521 2.271-5.521 6.03 0 3.767 2.126 6.039 5.521 6.039m13.88-.202h2.595l-4.058-11.665h-2.87l-4.05 11.665h2.506l.889-2.83h4.099zm-2.967-9.434h.057l1.495 4.777h-3.047zm9.199-.323h2.078c1.213 0 1.972.727 1.972 1.859 0 1.156-.719 1.859-1.948 1.859h-2.102zm0 5.488h1.957l2.174 4.269h2.765l-2.458-4.632c1.342-.526 2.118-1.819 2.118-3.315 0-2.304-1.536-3.718-4.219-3.718h-4.778v11.665h2.441zm8.165-7.396v11.665h4.454c3.5 0 5.562-2.175 5.562-5.877s-2.062-5.788-5.562-5.788zm2.441 2.013h1.722c2.15 0 3.363 1.342 3.363 3.783 0 2.522-1.18 3.848-3.363 3.848h-1.722zm22.57 9.652v-11.665h-2.441v4.737h-5.255v-4.737h-2.441v11.665h2.441v-4.915h5.255v4.915zm7.203-11.867c-3.46 0-5.627 2.32-5.627 6.038 0 3.711 2.167 6.031 5.627 6.031 3.451 0 5.626-2.32 5.626-6.031 0-3.718-2.175-6.038-5.626-6.038m0 2.037c1.907 0 3.128 1.552 3.128 4.001 0 2.442-1.221 3.986-3.128 3.986-1.916 0-3.137-1.544-3.137-3.986 0-2.449 1.229-4.001 3.137-4.001m14.744 7.809h-5.101v-9.644h-2.441v11.665h7.542zm1.447-9.644v11.665h4.454c3.501 0 5.562-2.175 5.562-5.877s-2.061-5.788-5.562-5.788zm2.441 2.013h1.722c2.151 0 3.363 1.342 3.363 3.783 0 2.522-1.18 3.848-3.363 3.848h-1.722zm16.879 7.631h-5.287v-2.943h4.988v-1.875h-4.988v-2.813h5.287v-2.013h-7.728v11.665h7.728zm4.204-7.736h2.077c1.213 0 1.973.727 1.973 1.859 0 1.156-.72 1.859-1.948 1.859h-2.102zm0 5.488h1.956l2.175 4.269h2.764l-2.457-4.632c1.342-.526 2.118-1.819 2.118-3.315 0-2.304-1.536-3.718-4.22-3.718h-4.778v11.665h2.442zm161.045 6.49c3.142 0 5.334-1.81 5.636-4.668h-2.61c-.284 1.518-1.429 2.45-3.017 2.45-2.051 0-3.338-1.687-3.338-4.42 0-2.698 1.305-4.394 3.329-4.394 1.562 0 2.769 1.03 3.017 2.601h2.61c-.204-2.867-2.548-4.819-5.627-4.819-3.71 0-6.062 2.494-6.062 6.621 0 4.136 2.334 6.629 6.062 6.629m13.836-.221 4.305-12.808h-2.92l-2.929 10.047h-.062l-2.929-10.047h-3l4.305 12.808zm12.337 0 4.305-12.808h-2.92l-2.929 10.047h-.062l-2.929-10.047h-3l4.304 12.808z" fill="#9D9DA8"/><path d="m326.394 378.853.701-1.216-1.979-1.109 1.979-1.127-.692-1.225-1.882 1.145.098-2.086h-1.607l.098 2.077-1.89-1.136-.684 1.225 1.97 1.118-1.97 1.109.684 1.225 1.89-1.136-.106 2.086h1.615l-.098-2.086zm8.431 0 .702-1.216-1.98-1.109 1.98-1.127-.693-1.225-1.881 1.145.097-2.086h-1.606l.098 2.077-1.891-1.136-.683 1.225 1.97 1.118-1.97 1.109.683 1.225 1.891-1.136-.107 2.086h1.615l-.097-2.086zm7.5 9.94 4.544-15.558h-2.387l-4.553 15.558zm14.813-9.94.701-1.216-1.979-1.109 1.979-1.127-.692-1.225-1.882 1.145.098-2.086h-1.606l.097 2.077-1.89-1.136-.684 1.225 1.971 1.118-1.971 1.109.684 1.225 1.89-1.136-.106 2.086h1.615l-.098-2.086zm8.432 0 .701-1.216-1.979-1.109 1.979-1.127-.692-1.225-1.882 1.145.098-2.086h-1.607l.098 2.077-1.891-1.136-.683 1.225 1.97 1.118-1.97 1.109.683 1.225 1.891-1.136-.107 2.086h1.616l-.098-2.086zm-206.512 5.48a4.5 4.5 0 0 1-1.52-.242 3.3 3.3 0 0 1-1.148-.687 3.2 3.2 0 0 1-.735-1.059 4 4 0 0 1-.292-1.375l-.008-.089h2.038l.008.065q.032.444.218.8.193.348.55.558.355.202.864.202.85 0 1.286-.493.444-.5.444-1.447v-8.189h2.078v8.205q0 1.18-.445 2.021a3 3 0 0 1-1.293 1.286q-.85.444-2.045.444m10.145-.113q-1.318 0-2.272-.55a3.74 3.74 0 0 1-1.471-1.584q-.509-1.027-.509-2.458v-.016q0-1.415.517-2.441a3.7 3.7 0 0 1 1.463-1.584q.954-.55 2.272-.55t2.263.55a3.67 3.67 0 0 1 1.471 1.576q.518 1.026.518 2.449v.016q0 1.43-.518 2.458a3.7 3.7 0 0 1-1.463 1.584q-.945.55-2.271.55m0-1.633q.695 0 1.18-.348.493-.355.752-1.01.258-.663.258-1.593v-.016q0-.938-.258-1.592-.259-.663-.752-1.011-.485-.355-1.18-.355-.696 0-1.189.355-.493.348-.751 1.011-.26.654-.259 1.592v.016q0 .93.259 1.593.258.663.743 1.01.494.348 1.197.348m6.354 1.455v-12.255h2.012v4.778h.138q.315-.72.954-1.124.638-.404 1.592-.404.987 0 1.665.388a2.43 2.43 0 0 1 1.027 1.115q.356.736.356 1.787v5.715h-2.013v-5.246q0-1.035-.437-1.552-.428-.518-1.342-.518-.597 0-1.034.267a1.75 1.75 0 0 0-.671.752q-.234.485-.235 1.148v5.149zm10.12 0v-8.835h2.013v1.358h.138q.315-.72.953-1.124.639-.404 1.593-.404 1.48 0 2.263.857.785.856.785 2.433v5.715h-2.013v-5.246q0-1.035-.437-1.552-.428-.518-1.342-.518-.598 0-1.034.267a1.75 1.75 0 0 0-.671.752q-.235.485-.235 1.148v5.149zm14.745 0v-11.665h4.373q1.738 0 2.959.679a4.5 4.5 0 0 1 1.875 1.973q.655 1.293.655 3.12v.016q0 1.868-.647 3.185a4.56 4.56 0 0 1-1.875 2.005q-1.221.687-2.967.687zm2.086-1.754h2.012q1.157 0 1.973-.477t1.237-1.39q.428-.913.428-2.223v-.017q0-1.277-.436-2.182-.429-.914-1.245-1.391-.817-.476-1.957-.476h-2.012zm13.774 1.932q-1.317 0-2.271-.55a3.74 3.74 0 0 1-1.472-1.584q-.509-1.027-.509-2.458v-.016q0-1.415.518-2.441a3.7 3.7 0 0 1 1.463-1.584q.954-.55 2.271-.55 1.318 0 2.264.55a3.7 3.7 0 0 1 1.471 1.576q.517 1.026.517 2.449v.016q0 1.43-.517 2.458a3.7 3.7 0 0 1-1.463 1.584q-.946.55-2.272.55m0-1.633q.696 0 1.18-.348.494-.355.752-1.01.26-.663.259-1.593v-.016q0-.938-.259-1.592-.258-.663-.752-1.011-.484-.355-1.18-.355-.695 0-1.188.355-.493.348-.752 1.011-.258.654-.259 1.592v.016q0 .93.259 1.593t.744 1.01q.493.348 1.196.348m10.056 1.633q-1.317 0-2.263-.558a3.7 3.7 0 0 1-1.447-1.584q-.51-1.027-.509-2.433v-.009q0-1.39.501-2.425a3.77 3.77 0 0 1 1.439-1.6q.929-.574 2.182-.574 1.261 0 2.167.558a3.64 3.64 0 0 1 1.406 1.544q.493.995.493 2.328v.663h-7.178v-1.35h6.192l-.954 1.261v-.801q0-.88-.266-1.463-.267-.582-.744-.873a2.03 2.03 0 0 0-1.091-.291q-.623 0-1.108.307-.477.3-.76.89-.275.582-.275 1.43v.809q0 .816.275 1.398.275.574.776.889.51.308 1.205.308.542 0 .929-.154.396-.162.639-.38a1.5 1.5 0 0 0 .34-.428l.024-.057h1.908l-.017.073q-.105.428-.388.873a3.3 3.3 0 0 1-.751.816q-.47.372-1.148.607-.679.226-1.577.226m195.695-5.367.701-1.216-1.979-1.109 1.979-1.127-.693-1.225-1.881 1.145.098-2.086h-1.607l.098 2.077-1.891-1.136-.683 1.225 1.97 1.118-1.97 1.109.683 1.225 1.891-1.136-.107 2.086h1.616l-.098-2.086zm8.431 0 .701-1.216-1.979-1.109 1.979-1.127-.692-1.225-1.882 1.145.098-2.086h-1.606l.097 2.077-1.89-1.136-.684 1.225 1.971 1.118-1.971 1.109.684 1.225 1.89-1.136-.106 2.086h1.615l-.098-2.086zm8.432 0 .701-1.216-1.979-1.109 1.979-1.127-.692-1.225-1.882 1.145.098-2.086h-1.607l.098 2.077-1.891-1.136-.683 1.225 1.97 1.118-1.97 1.109.683 1.225 1.891-1.136-.107 2.086h1.616l-.098-2.086z" fill="#696974"/><path d="M155.998 149.089v16.349h3.422v-5.155h3.059c3.445 0 5.835-2.244 5.835-5.597 0-3.365-2.311-5.597-5.665-5.597zm3.422 2.707h2.323c1.96 0 3.093 1.043 3.093 2.901 0 1.869-1.145 2.912-3.105 2.912h-2.311zm25.13 13.642v-16.349h-3.421v6.639h-7.365v-6.639h-3.422v16.349h3.422v-6.889h7.365v6.889zm10.787 0v-6.107l5.699-10.242h-3.671l-3.671 6.979h-.08l-3.659-6.979h-3.728l5.688 10.242v6.107zm6.288-4.668c.102 3.082 2.696 4.951 6.594 4.951 4.09 0 6.594-2.028 6.594-5.223 0-2.481-1.507-3.875-4.962-4.566l-1.734-.351c-1.926-.386-2.719-1.009-2.719-2.017 0-1.201 1.133-1.994 2.821-1.994 1.722 0 2.935.838 3.048 2.232h3.229c-.057-3.003-2.459-4.997-6.277-4.997-3.637 0-6.243 1.983-6.243 4.974 0 2.436 1.598 4 4.861 4.646l1.722.339c2.051.42 2.821 1.032 2.821 2.108 0 1.201-1.246 2.085-3.07 2.085-1.859 0-3.241-.816-3.456-2.187zm18.706 4.668v-16.349h-3.422v16.349zm9.948.283c4.011 0 6.809-2.311 7.194-5.959h-3.331c-.362 1.937-1.824 3.127-3.852 3.127-2.617 0-4.26-2.153-4.26-5.643 0-3.444 1.666-5.608 4.249-5.608 1.994 0 3.535 1.314 3.852 3.32h3.331c-.26-3.66-3.252-6.153-7.183-6.153-4.736 0-7.739 3.184-7.739 8.453 0 5.279 2.98 8.463 7.739 8.463m19.454-.283h3.637l-5.688-16.349h-4.022l-5.677 16.349h3.513l1.246-3.966h5.744zm-4.158-13.222h.079l2.096 6.696h-4.272zm20.043 10.389h-7.15v-13.516h-3.421v16.349h10.571z" fill="#9D9DA8"/><path d="m168.769 296.299 1.382-2.433-4.301-2.453 4.321-2.491-1.402-2.433-4.145 2.53.175-4.613h-3.134l.175 4.613-4.145-2.53-1.363 2.433 4.263 2.472-4.282 2.452 1.362 2.453 4.165-2.53-.175 4.612h3.134l-.175-4.612zm17.596 0 1.382-2.433-4.302-2.453 4.321-2.491-1.401-2.433-4.146 2.53.175-4.613h-3.134l.176 4.613-4.146-2.53-1.363 2.433 4.263 2.472-4.282 2.452 1.362 2.453 4.166-2.53-.176 4.612h3.134l-.175-4.612zm17.595 0 1.382-2.433-4.301-2.453 4.321-2.491-1.402-2.433-4.146 2.53.176-4.613h-3.134l.175 4.613-4.146-2.53-1.362 2.433 4.262 2.472-4.282 2.452 1.363 2.453 4.165-2.53-.175 4.612h3.134l-.176-4.612zm17.596 0 1.381-2.433-4.301-2.453 4.321-2.491-1.401-2.433-4.146 2.53.175-4.613h-3.134l.175 4.613-4.145-2.53-1.363 2.433 4.263 2.472-4.282 2.452 1.362 2.453 4.165-2.53-.175 4.612h3.134l-.175-4.612zm25.186 0 1.382-2.433-4.302-2.453 4.321-2.491-1.401-2.433-4.146 2.53.175-4.613h-3.134l.176 4.613-4.146-2.53-1.363 2.433 4.263 2.472-4.282 2.452 1.362 2.453 4.166-2.53-.176 4.612h3.134l-.175-4.612zm17.595 0 1.382-2.433-4.301-2.453 4.321-2.491-1.402-2.433-4.146 2.53.176-4.613h-3.134l.175 4.613-4.146-2.53-1.362 2.433 4.262 2.472-4.282 2.452 1.363 2.453 4.165-2.53-.175 4.612h3.134l-.176-4.612zm17.596 0 1.381-2.433-4.301-2.453 4.321-2.491-1.401-2.433-4.146 2.53.175-4.613h-3.134l.175 4.613-4.145-2.53-1.363 2.433 4.263 2.472-4.282 2.452 1.362 2.453 4.165-2.53-.175 4.612h3.134l-.175-4.612zm17.595 0 1.382-2.433-4.302-2.453 4.321-2.491-1.401-2.433-4.146 2.53.175-4.613h-3.133l.175 4.613-4.146-2.53-1.363 2.433 4.263 2.472-4.282 2.452 1.362 2.453 4.166-2.53-.175 4.612h3.133l-.175-4.612zm25.186 0 1.382-2.433-4.301-2.453 4.321-2.491-1.402-2.433-4.146 2.53.176-4.613h-3.134l.175 4.613-4.146-2.53-1.362 2.433 4.262 2.472-4.282 2.452 1.363 2.453 4.165-2.53-.175 4.612h3.134l-.176-4.612zm17.596 0 1.381-2.433-4.301-2.453 4.321-2.491-1.401-2.433-4.146 2.53.175-4.613h-3.134l.175 4.613-4.145-2.53-1.363 2.433 4.263 2.472-4.282 2.452 1.362 2.453 4.165-2.53-.175 4.612h3.134l-.175-4.612zm17.595 0 1.382-2.433-4.302-2.453 4.321-2.491-1.401-2.433-4.146 2.53.175-4.613h-3.133l.175 4.613-4.146-2.53-1.363 2.433 4.263 2.472-4.282 2.452 1.362 2.453 4.166-2.53-.175 4.612h3.133l-.175-4.612zm17.595 0 1.382-2.433-4.301-2.453 4.321-2.491-1.402-2.433-4.146 2.53.176-4.613h-3.134l.175 4.613-4.146-2.53-1.362 2.433 4.262 2.472-4.282 2.452 1.363 2.453 4.165-2.53-.175 4.612h3.134l-.176-4.612zm25.187 0 1.381-2.433-4.301-2.453 4.321-2.491-1.401-2.433-4.146 2.53.175-4.613h-3.134l.175 4.613-4.145-2.53-1.363 2.433 4.263 2.472-4.282 2.452 1.362 2.453 4.165-2.53-.175 4.612h3.134l-.175-4.612zm17.595 0 1.382-2.433-4.302-2.453 4.321-2.491-1.401-2.433-4.146 2.53.175-4.613h-3.133l.175 4.613-4.146-2.53-1.363 2.433 4.263 2.472-4.282 2.452 1.362 2.453 4.166-2.53-.175 4.612h3.133l-.175-4.612zm17.595 0 1.382-2.433-4.301-2.453 4.321-2.491-1.402-2.433-4.146 2.53.176-4.613h-3.134l.175 4.613-4.146-2.53-1.362 2.433 4.262 2.472-4.282 2.452 1.363 2.453 4.165-2.53-.175 4.612h3.134l-.176-4.612zm17.596 0 1.382-2.433-4.302-2.453 4.321-2.491-1.401-2.433-4.146 2.53.175-4.613h-3.134l.175 4.613-4.145-2.53-1.363 2.433 4.263 2.472-4.282 2.452 1.362 2.453 4.165-2.53-.175 4.612h3.134l-.175-4.612z" fill="#696974"/><path d="M489.552 145.311c-3.443 1.133-5.752 3.865-6.33 7.463-.111.799-.222 4.664-.222 8.595v7.174h3.754l.066-7.951c.067-7.507.089-7.974.533-8.929.955-2.043 2.799-3.131 5.309-3.131 1.865 0 2.909.377 4.108 1.532 1.711 1.666 1.777 2.088 1.777 10.972v7.507h3.776v-7.396c0-7.973-.155-9.373-1.199-11.416-.755-1.51-2.377-3.043-4.109-3.909-1.355-.666-1.644-.711-4.02-.755-1.644-.045-2.865.044-3.443.244m23.832.111c-3.243 1.044-5.664 3.421-6.996 6.841-.445 1.155-.6 2.043-.689 3.842-.111 2.732.133 4.243 1.088 6.241 2.044 4.332 5.375 6.419 10.195 6.419 2.665 0 4.486-.511 6.419-1.799 3.131-2.088 4.908-5.752 4.908-10.083 0-2.421-.399-4.109-1.488-6.153-1.377-2.643-3.509-4.442-6.263-5.286-1.866-.577-5.375-.599-7.174-.022m6.308 3.509c1.377.422 3.109 1.999 3.82 3.465 1.244 2.577 1.266 6.419 0 8.973-.689 1.444-2.421 3.021-3.798 3.487-.6.2-1.755.356-2.732.356-2.177 0-3.487-.467-4.864-1.688-2.043-1.844-2.999-4.998-2.51-8.24.844-5.309 5.02-7.952 10.084-6.353m13.082-3.109c.111.333 1.599 4.064 3.265 8.284l3.042 7.663 2.555.067 2.554.066 3.154-7.951c1.732-4.376 3.22-8.129 3.309-8.351.133-.333-.044-.378-1.866-.378h-1.999l-1.11 2.821c-.6 1.577-1.733 4.509-2.51 6.552-.777 2.066-1.466 3.731-1.532 3.731s-1.222-2.931-2.577-6.507l-2.465-6.486-2.021-.066-2.021-.067zm28.229.555c-.244.644-2.399 5.908-4.775 11.661l-4.309 10.505h4.109l1.066-2.665 1.066-2.665 5.886.044 5.886.067 1.021 2.554 1.022 2.554 2.066.067c1.888.066 2.043.022 1.932-.333-.067-.222-2.221-5.442-4.753-11.616l-4.642-11.217-2.554-.066-2.554-.067zm5.353 7.996 2.11 5.286h-8.84l.422-1.11c1.799-4.731 3.909-9.751 4.042-9.618.089.111 1.111 2.555 2.266 5.442m-32.494 12.504v1.666h15.325v-3.331h-15.325z" fill="#fff"/><defs><linearGradient id="a" x1="110" y1="418.73" x2="465.579" y2="445.111" gradientUnits="userSpaceOnUse"><stop stop-color="#fff"/><stop offset="1" stop-color="#fff"/></linearGradient><linearGradient id="c" x1="154.715" y1="201.284" x2="214.105" y2="248.7" gradientUnits="userSpaceOnUse"><stop stop-color="#ABABAB"/><stop offset=".313" stop-color="#fff"/><stop offset=".63" stop-color="#BDBDBD"/><stop offset="1" stop-color="#5E5E5E"/></linearGradient><linearGradient id="d" x1="157.134" y1="203.946" x2="216.524" y2="246.522" gradientUnits="userSpaceOnUse"><stop stop-color="#7D7D7D"/><stop offset=".495" stop-color="#fff"/><stop offset="1" stop-color="#1C1C1C"/></linearGradient><filter id="b" x="154.715" y="201.284" width="66.284" height="47.415" filterUnits="userSpaceOnUse" color-interpolation-filters="sRGB"><feFlood flood-opacity="0" result="BackgroundImageFix"/><feBlend in="SourceGraphic" in2="BackgroundImageFix" result="shape"/><feColorMatrix in="SourceAlpha" values="0 0 0 0 0 0 0 0 0 0 0 0 0 0 0 0 0 0 127 0" result="hardAlpha"/><feOffset dx="-.726" dy="-.726"/><feComposite in2="hardAlpha" operator="arithmetic" k2="-1" k3="1"/><feColorMatrix values="0 0 0 0 0 0 0 0 0 0 0 0 0 0 0 0 0 0 0.25 0"/><feBlend in2="shape" result="effect1_innerShadow_1_97"/></filter></defs></svg>