<svg width="501" height="317" viewBox="0 0 501 317" fill="none" xmlns="http://www.w3.org/2000/svg">
<rect x="1" y="315.73" width="314.73" height="499.311" rx="17.453" transform="rotate(-90 1 315.73)" fill="url(#paint0_linear_113_15)" fill-opacity="0.1" stroke="white" stroke-opacity="0.1"/>
<g filter="url(#filter0_i_113_15)">
<rect x="45.7148" y="98.2844" width="66.2844" height="47.4152" rx="8.46699" fill="url(#paint1_linear_113_15)"/>
<rect x="45.7148" y="98.2844" width="66.2844" height="47.4152" rx="8.46699" fill="#FFC700" fill-opacity="0.27"/>
</g>
<path d="M45.6387 114.695H68.1787C69.6058 110.312 73.6185 101.281 78.2524 100.22C79.9733 100.823 83.9944 102.994 86.3114 106.854M45.6387 129.895H68.1787C68.1787 137.422 74.8945 142.922 78.2524 144.732C83.8937 142.898 88.2422 134.076 89.7113 129.895H111.999M111.999 118.314H89.7113C88.7039 116.424 87.2936 112.066 89.7113 109.749" stroke="url(#paint2_linear_113_15)" stroke-width="0.725742"/>
<path fill-rule="evenodd" clip-rule="evenodd" d="M460.472 242.483C461.374 241.987 462.508 242.316 463.004 243.219C466.033 248.733 470.163 263.129 463.044 277.652C462.59 278.576 461.473 278.958 460.549 278.505C459.624 278.052 459.242 276.935 459.695 276.01C466.137 262.87 462.356 249.784 459.735 245.015C459.24 244.112 459.569 242.979 460.472 242.483ZM453.408 245.674C454.327 245.209 455.448 245.576 455.914 246.495C458.277 251.16 461.561 263.158 455.918 274.444C455.458 275.365 454.338 275.739 453.417 275.278C452.496 274.818 452.122 273.698 452.583 272.777C457.516 262.909 454.631 252.216 452.587 248.18C452.122 247.261 452.489 246.139 453.408 245.674ZM446.771 249.756C447.683 249.276 448.81 249.626 449.29 250.537C450.249 252.361 451.339 255.464 451.658 259.077C451.979 262.706 451.529 266.964 449.262 270.969C448.755 271.865 447.617 272.181 446.721 271.673C445.825 271.166 445.51 270.028 446.017 269.132C447.818 265.95 448.217 262.496 447.944 259.405C447.669 256.297 446.725 253.671 445.99 252.274C445.51 251.363 445.86 250.235 446.771 249.756ZM439.276 253.674C440.176 253.174 441.311 253.498 441.812 254.399C442.487 255.613 443.252 257.62 443.478 259.882C443.705 262.158 443.397 264.859 441.699 267.236C441.1 268.074 439.936 268.268 439.098 267.669C438.26 267.071 438.066 265.906 438.664 265.068C439.678 263.649 439.936 261.943 439.767 260.252C439.597 258.548 439.007 257.029 438.552 256.21C438.052 255.309 438.376 254.174 439.276 253.674Z" fill="white"/>
<path d="M51.5643 62.438L46.1032 46.0886H49.9101L53.6038 58.8463H53.7057L57.4107 46.0886H61.2176L55.7452 62.438H51.5643ZM63.2231 62.438V46.0886H66.6448V62.438H63.2231ZM69.7493 62.438V46.0886H76.5134C77.7446 46.0886 78.7945 46.3001 79.6631 46.7231C80.5393 47.1385 81.2078 47.7352 81.6686 48.5132C82.1369 49.2912 82.3711 50.2241 82.3711 51.3118V51.3344C82.3711 52.407 82.1067 53.3625 81.5779 54.201C81.0492 55.0318 80.3278 55.6286 79.4139 55.9911L82.8582 62.438H78.972L75.9355 56.501C75.9129 56.501 75.8864 56.501 75.8562 56.501C75.826 56.501 75.7958 56.501 75.7656 56.501H73.171V62.438H69.7493ZM73.171 53.9404H76.1508C77.0043 53.9404 77.669 53.7138 78.1449 53.2606C78.6283 52.7998 78.87 52.1653 78.87 51.3571V51.3344C78.87 50.5489 78.6208 49.9257 78.1222 49.465C77.6237 48.9966 76.9515 48.7625 76.1055 48.7625H73.171V53.9404ZM88.9086 62.438V48.9098H84.1272V46.0886H97.1116V48.9098H92.3303V62.438H88.9086ZM106.198 62.7666C104.801 62.7666 103.589 62.5135 102.561 62.0074C101.542 61.5014 100.749 60.7951 100.182 59.8887C99.6231 58.9747 99.3436 57.9135 99.3436 56.7049V46.0886H102.765V56.399C102.765 57.1015 102.898 57.7133 103.162 58.2345C103.434 58.7481 103.823 59.1485 104.329 59.4355C104.843 59.7225 105.466 59.866 106.198 59.866C106.931 59.866 107.55 59.7225 108.057 59.4355C108.57 59.1485 108.959 58.7481 109.224 58.2345C109.488 57.7133 109.62 57.1015 109.62 56.399V46.0886H113.042V56.7049C113.042 57.9135 112.762 58.9747 112.203 59.8887C111.652 60.7951 110.863 61.5014 109.835 62.0074C108.816 62.5135 107.603 62.7666 106.198 62.7666ZM114.628 62.438L120.327 46.0886H123.318V49.295H122.287L118.22 62.438H114.628ZM117.687 58.4724L118.526 55.9118H126.128L126.967 58.4724H117.687ZM126.445 62.438L122.389 49.295V46.0886H124.349L130.048 62.438H126.445ZM132.042 62.438V46.0886H135.464V59.6168H142.659V62.438H132.042Z" fill="#9D9DA8"/>
<path d="M380.552 42.3112C377.109 43.4439 374.8 46.1758 374.222 49.7739C374.111 50.5735 374 54.4381 374 58.3694V65.5433H375.866H377.754L377.82 57.592C377.887 50.0849 377.909 49.6184 378.353 48.6634C379.308 46.62 381.152 45.5317 383.662 45.5317C385.527 45.5317 386.571 45.9093 387.77 47.0642C389.481 48.73 389.547 49.152 389.547 58.0362V65.5433H391.435H393.323V58.1473C393.323 50.1737 393.168 48.7744 392.124 46.7311C391.369 45.2208 389.747 43.6882 388.015 42.822C386.66 42.1557 386.371 42.1113 383.995 42.0669C382.351 42.0225 381.13 42.1113 380.552 42.3112Z" fill="white"/>
<path d="M404.384 42.4222C401.141 43.4661 398.72 45.8426 397.388 49.263C396.943 50.418 396.788 51.3064 396.699 53.1054C396.588 55.8373 396.832 57.3476 397.787 59.3466C399.831 63.6776 403.162 65.7654 407.982 65.7654C410.647 65.7654 412.469 65.2545 414.401 63.9663C417.533 61.8786 419.309 58.2138 419.309 53.8828C419.309 51.4618 418.91 49.7739 417.821 47.7305C416.444 45.0874 414.312 43.2884 411.558 42.4444C409.692 41.8669 406.183 41.8447 404.384 42.4222ZM410.692 45.9314C412.069 46.3534 413.801 47.9304 414.512 49.3963C415.756 51.9727 415.778 55.8151 414.512 58.3693C413.823 59.813 412.091 61.3899 410.714 61.8563C410.114 62.0562 408.959 62.2117 407.982 62.2117C405.805 62.2117 404.495 61.7453 403.118 60.5237C401.075 58.6802 400.12 55.5264 400.608 52.2836C401.452 46.9753 405.628 44.3323 410.692 45.9314Z" fill="white"/>
<path d="M423.774 42.822C423.885 43.1551 425.373 46.8865 427.039 51.1065L430.081 58.7691L432.636 58.8357L435.19 58.9023L438.344 50.951C440.076 46.5755 441.564 42.822 441.653 42.5999C441.786 42.2667 441.609 42.2223 439.787 42.2223H437.788L436.678 45.043C436.078 46.62 434.945 49.5517 434.168 51.5951C433.391 53.6607 432.702 55.3265 432.636 55.3265C432.569 55.3265 431.414 52.3947 430.059 48.8188L427.594 42.3333L425.573 42.2667L423.552 42.2001L423.774 42.822Z" fill="white"/>
<path d="M452.003 43.3773C451.759 44.0214 449.604 49.2853 447.228 55.0378L442.919 65.5433H444.962H447.028L448.094 62.8781L449.16 60.2128L455.046 60.2572L460.932 60.3239L461.953 62.8781L462.975 65.4323L465.041 65.4989C466.929 65.5655 467.084 65.5211 466.973 65.1658C466.906 64.9437 464.752 59.7242 462.22 53.5497L457.578 42.3334L455.024 42.2668L452.47 42.2002L452.003 43.3773ZM457.356 51.3731L459.466 56.6592H455.046H450.626L451.048 55.5486C452.847 50.8178 454.957 45.7982 455.09 45.9315C455.179 46.0426 456.201 48.4857 457.356 51.3731Z" fill="white"/>
<path d="M424.862 63.8776V65.5433H432.525H440.187V63.8776V62.2118H432.525H424.862V63.8776Z" fill="white"/>
<defs>
<filter id="filter0_i_113_15" x="45.7148" y="98.2844" width="66.2844" height="47.4152" filterUnits="userSpaceOnUse" color-interpolation-filters="sRGB">
<feFlood flood-opacity="0" result="BackgroundImageFix"/>
<feBlend mode="normal" in="SourceGraphic" in2="BackgroundImageFix" result="shape"/>
<feColorMatrix in="SourceAlpha" type="matrix" values="0 0 0 0 0 0 0 0 0 0 0 0 0 0 0 0 0 0 127 0" result="hardAlpha"/>
<feOffset dx="-0.725742" dy="-0.725742"/>
<feComposite in2="hardAlpha" operator="arithmetic" k2="-1" k3="1"/>
<feColorMatrix type="matrix" values="0 0 0 0 0 0 0 0 0 0 0 0 0 0 0 0 0 0 0.25 0"/>
<feBlend mode="normal" in2="shape" result="effect1_innerShadow_113_15"/>
</filter>
<linearGradient id="paint0_linear_113_15" x1="1" y1="315.73" x2="356.579" y2="342.111" gradientUnits="userSpaceOnUse">
<stop stop-color="#6724F5"/>
<stop offset="1" stop-color="#6529F7"/>
</linearGradient>
<linearGradient id="paint1_linear_113_15" x1="45.7148" y1="98.2844" x2="105.105" y2="145.7" gradientUnits="userSpaceOnUse">
<stop stop-color="#ABABAB"/>
<stop offset="0.3125" stop-color="white"/>
<stop offset="0.630208" stop-color="#BDBDBD"/>
<stop offset="1" stop-color="#5E5E5E"/>
</linearGradient>
<linearGradient id="paint2_linear_113_15" x1="48.1341" y1="100.945" x2="107.524" y2="143.522" gradientUnits="userSpaceOnUse">
<stop stop-color="#7D7D7D"/>
<stop offset="0.494792" stop-color="white"/>
<stop offset="1" stop-color="#1C1C1C"/>
</linearGradient>
</defs>
</svg>
