<svg width="157" height="158" viewBox="0 0 157 158" fill="none" xmlns="http://www.w3.org/2000/svg">
<foreignObject x="0.444443" y="0.94249" width="156.115" height="156.115"><div xmlns="http://www.w3.org/1999/xhtml" style="backdrop-filter:blur(2.37px);clip-path:url(#bgblur_0_1_376_clip_path);height:100%;width:100%"></div></foreignObject><g filter="url(#filter0_d_1_376)" data-figma-bg-blur-radius="4.74074">
<rect x="36" y="36.498" width="85.0041" height="85.0041" rx="42.502" fill="url(#paint0_linear_1_376)" shape-rendering="crispEdges"/>
<rect x="36.5926" y="37.0906" width="83.8189" height="83.8189" rx="41.9094" stroke="url(#paint1_linear_1_376)" stroke-width="1.18519" style="mix-blend-mode:overlay" shape-rendering="crispEdges"/>
<path d="M65 97.6668C62.4333 97.6668 60.2361 96.7529 58.4083 94.9252C56.5805 93.0974 55.6666 90.9002 55.6666 88.3335V69.6668C55.6666 67.1002 56.5805 64.9029 58.4083 63.0752C60.2361 61.2474 62.4333 60.3335 65 60.3335H93C95.5666 60.3335 97.7639 61.2474 99.5916 63.0752C101.419 64.9029 102.333 67.1002 102.333 69.6668V88.3335C102.333 90.9002 101.419 93.0974 99.5916 94.9252C97.7639 96.7529 95.5666 97.6668 93 97.6668H65ZM65 69.6668H93C93.8555 69.6668 94.6722 69.7641 95.45 69.9585C96.2277 70.1529 96.9666 70.4641 97.6666 70.8918V69.6668C97.6666 68.3835 97.2101 67.2853 96.297 66.3722C95.3839 65.4591 94.2849 65.0017 93 65.0002H65C63.7166 65.0002 62.6184 65.4575 61.7053 66.3722C60.7922 67.2868 60.3348 68.3851 60.3333 69.6668V70.8918C61.0333 70.4641 61.7722 70.1529 62.55 69.9585C63.3277 69.7641 64.1444 69.6668 65 69.6668ZM60.6833 77.2502L86.6416 83.5502C86.9916 83.6279 87.3416 83.6279 87.6916 83.5502C88.0416 83.4724 88.3722 83.3168 88.6833 83.0835L96.7916 76.3168C96.3638 75.7335 95.8194 75.2575 95.1583 74.8888C94.4972 74.5202 93.7777 74.3351 93 74.3335H65C63.9888 74.3335 63.1045 74.5964 62.347 75.1222C61.5894 75.6479 61.0348 76.3573 60.6833 77.2502Z" fill="white"/>
</g>
<defs>
<filter id="filter0_d_1_376" x="0.444443" y="0.94249" width="156.115" height="156.115" filterUnits="userSpaceOnUse" color-interpolation-filters="sRGB">
<feFlood flood-opacity="0" result="BackgroundImageFix"/>
<feColorMatrix in="SourceAlpha" type="matrix" values="0 0 0 0 0 0 0 0 0 0 0 0 0 0 0 0 0 0 127 0" result="hardAlpha"/>
<feOffset/>
<feGaussianBlur stdDeviation="17.7778"/>
<feComposite in2="hardAlpha" operator="out"/>
<feColorMatrix type="matrix" values="0 0 0 0 0.584314 0 0 0 0 0.168627 0 0 0 0 1 0 0 0 1 0"/>
<feBlend mode="normal" in2="BackgroundImageFix" result="effect1_dropShadow_1_376"/>
<feBlend mode="normal" in="SourceGraphic" in2="effect1_dropShadow_1_376" result="shape"/>
</filter>
<clipPath id="bgblur_0_1_376_clip_path" transform="translate(-0.444443 -0.94249)"><rect x="36" y="36.498" width="85.0041" height="85.0041" rx="42.502"/>
</clipPath><linearGradient id="paint0_linear_1_376" x1="78.502" y1="36.498" x2="78.502" y2="121.502" gradientUnits="userSpaceOnUse">
<stop stop-color="#952BFF"/>
<stop offset="1" stop-color="#451576"/>
</linearGradient>
<linearGradient id="paint1_linear_1_376" x1="68.1421" y1="95.4582" x2="106.122" y2="41.6641" gradientUnits="userSpaceOnUse">
<stop stop-color="white"/>
<stop offset="1" stop-color="white" stop-opacity="0.5"/>
</linearGradient>
</defs>
</svg>
