<svg width="502" height="317" viewBox="0 0 502 317" fill="none" xmlns="http://www.w3.org/2000/svg"><rect x="1.311" y="315.73" width="314.73" height="499.311" rx="17.453" transform="rotate(-90 1.31 315.73)" fill="url(#a)" fill-opacity=".1" stroke="#fff" stroke-opacity=".1"/><g filter="url(#b)"><rect x="46.025" y="98.284" width="66.284" height="47.415" rx="8.467" fill="url(#c)"/><rect x="46.025" y="98.284" width="66.284" height="47.415" rx="8.467" fill="#FFC700" fill-opacity=".27"/></g><path d="M45.95 114.695h22.54c1.426-4.383 5.439-13.414 10.073-14.475 1.72.603 5.742 2.774 8.059 6.634m-40.673 23.041h22.54c0 7.527 6.716 13.028 10.074 14.837 5.641-1.834 9.99-10.656 11.459-14.837h22.288m0-11.581H90.022c-1.008-1.89-2.418-6.248 0-8.565" stroke="url(#d)" stroke-width=".726"/><path fill-rule="evenodd" clip-rule="evenodd" d="M460.782 242.483a1.864 1.864 0 0 1 2.532.736c3.03 5.514 7.159 19.91.04 34.433a1.864 1.864 0 0 1-3.348-1.642c6.441-13.14 2.661-26.226.04-30.995a1.865 1.865 0 0 1 .736-2.532m-7.063 3.191a1.864 1.864 0 0 1 2.505.821c2.363 4.665 5.648 16.663.005 27.949a1.865 1.865 0 0 1-3.336-1.667c4.934-9.868 2.049-20.561.005-24.597a1.864 1.864 0 0 1 .821-2.506m-6.637 4.082a1.864 1.864 0 0 1 2.518.781c.96 1.824 2.05 4.927 2.369 8.54.32 3.629-.129 7.887-2.396 11.892a1.864 1.864 0 1 1-3.245-1.837c1.801-3.182 2.199-6.636 1.926-9.727-.274-3.108-1.218-5.734-1.954-7.131a1.865 1.865 0 0 1 .782-2.518m-7.495 3.918c.9-.5 2.035-.176 2.535.725.675 1.214 1.441 3.221 1.666 5.483.227 2.276-.08 4.977-1.778 7.354a1.864 1.864 0 1 1-3.035-2.168c1.014-1.419 1.271-3.125 1.103-4.816-.17-1.704-.761-3.223-1.216-4.042a1.865 1.865 0 0 1 .725-2.536" fill="#fff"/><path d="m218.823 258.02 4.304-12.808h-2.92l-2.929 10.047h-.062l-2.929-10.047h-2.999l4.304 12.808zm12.62 0h2.849l-4.455-12.808h-3.151l-4.446 12.808h2.751l.976-3.107h4.5zm-3.257-10.358h.062l1.642 5.245h-3.346zm15.701 8.139h-5.601v-10.589h-2.68v12.808h8.281zm4.269 2.219v-12.808h-2.681v12.808zm2.13-12.808v12.808h4.89c3.843 0 6.106-2.388 6.106-6.453s-2.263-6.355-6.106-6.355zm2.68 2.21h1.891c2.36 0 3.692 1.474 3.692 4.154 0 2.769-1.296 4.225-3.692 4.225h-1.891zm-200.811 8.8c2.861 0 4.858-1.649 5.133-4.252H54.91c-.258 1.382-1.301 2.231-2.748 2.231-1.867 0-3.04-1.536-3.04-4.026 0-2.457 1.189-4.001 3.032-4.001 1.422 0 2.522.937 2.748 2.368h2.377c-.186-2.611-2.32-4.389-5.125-4.389-3.38 0-5.521 2.271-5.521 6.03 0 3.767 2.126 6.039 5.52 6.039m13.88-.202h2.594l-4.058-11.665h-2.87l-4.05 11.665h2.507l.889-2.83h4.098zm-2.967-9.434h.056l1.496 4.777H61.57zm9.199-.323h2.078c1.212 0 1.972.727 1.972 1.859 0 1.156-.72 1.859-1.948 1.859h-2.102zm0 5.488h1.956l2.175 4.269h2.764l-2.457-4.632c1.342-.526 2.118-1.819 2.118-3.315 0-2.304-1.536-3.718-4.22-3.718h-4.777v11.665h2.441zm8.165-7.396v11.665h4.454c3.5 0 5.561-2.175 5.561-5.877s-2.061-5.788-5.561-5.788zm2.44 2.013h1.723c2.15 0 3.362 1.342 3.362 3.783 0 2.522-1.18 3.848-3.362 3.848h-1.722zm22.571 9.652v-11.665h-2.442v4.737h-5.254v-4.737h-2.441v11.665h2.44v-4.915h5.255v4.915zm7.202-11.867c-3.46 0-5.626 2.32-5.626 6.038 0 3.711 2.166 6.031 5.626 6.031 3.452 0 5.626-2.32 5.626-6.031 0-3.718-2.174-6.038-5.626-6.038m0 2.037c1.908 0 3.128 1.552 3.128 4.001 0 2.442-1.22 3.986-3.128 3.986-1.916 0-3.136-1.544-3.136-3.986 0-2.449 1.228-4.001 3.136-4.001m14.745 7.809h-5.101v-9.644h-2.441v11.665h7.542zm1.447-9.644v11.665h4.454c3.5 0 5.561-2.175 5.561-5.877s-2.061-5.788-5.561-5.788zm2.441 2.013H133c2.15 0 3.363 1.342 3.363 3.783 0 2.522-1.181 3.848-3.363 3.848h-1.722zm16.879 7.631h-5.287v-2.943h4.988v-1.875h-4.988v-2.813h5.287v-2.013h-7.728v11.665h7.728zm4.203-7.736h2.078c1.212 0 1.972.727 1.972 1.859 0 1.156-.719 1.859-1.948 1.859h-2.102zm0 5.488h1.957l2.174 4.269h2.765l-2.458-4.632c1.342-.526 2.118-1.819 2.118-3.315 0-2.304-1.536-3.718-4.22-3.718h-4.777v11.665h2.441zm161.047 6.49c3.142 0 5.334-1.81 5.636-4.668h-2.609c-.284 1.518-1.429 2.45-3.018 2.45-2.05 0-3.337-1.687-3.337-4.42 0-2.698 1.305-4.394 3.328-4.394 1.562 0 2.769 1.03 3.018 2.601h2.609c-.204-2.867-2.547-4.819-5.627-4.819-3.71 0-6.062 2.494-6.062 6.621 0 4.136 2.335 6.629 6.062 6.629m13.837-.221 4.304-12.808h-2.92l-2.928 10.047h-.063l-2.928-10.047h-3l4.304 12.808zm12.337 0 4.304-12.808h-2.92l-2.929 10.047h-.062l-2.929-10.047h-3l4.305 12.808z" fill="#9D9DA8"/><path d="m217.704 275.853.702-1.216-1.98-1.109 1.98-1.127-.693-1.225-1.881 1.145.097-2.086h-1.606l.098 2.077-1.891-1.136-.683 1.225 1.97 1.118-1.97 1.109.683 1.225 1.891-1.136-.107 2.086h1.615l-.097-2.086zm8.432 0 .701-1.216-1.979-1.109 1.979-1.127-.692-1.225-1.882 1.145.098-2.086h-1.606l.097 2.077-1.89-1.136-.684 1.225 1.971 1.118-1.971 1.109.684 1.225 1.89-1.136-.106 2.086h1.615l-.098-2.086zm7.5 9.94 4.544-15.558h-2.388l-4.553 15.558zm14.813-9.94.701-1.216-1.979-1.109 1.979-1.127-.692-1.225-1.882 1.145.098-2.086h-1.607l.098 2.077-1.891-1.136-.683 1.225 1.97 1.118-1.97 1.109.683 1.225 1.891-1.136-.107 2.086h1.616l-.098-2.086zm8.431 0 .701-1.216-1.979-1.109 1.979-1.127-.692-1.225-1.881 1.145.097-2.086h-1.606l.097 2.077-1.89-1.136-.684 1.225 1.971 1.118-1.971 1.109.684 1.225 1.89-1.136-.106 2.086h1.615l-.097-2.086zm-206.512 5.48a4.5 4.5 0 0 1-1.52-.242 3.3 3.3 0 0 1-1.147-.687 3.2 3.2 0 0 1-.736-1.059 4 4 0 0 1-.291-1.375l-.008-.089h2.037l.008.065q.032.444.218.8.195.348.55.558.356.202.865.202.849 0 1.285-.493.445-.5.445-1.447v-8.189h2.078v8.205q0 1.18-.445 2.021a3 3 0 0 1-1.294 1.286q-.848.444-2.045.444m10.145-.113q-1.317 0-2.271-.55a3.74 3.74 0 0 1-1.471-1.584q-.51-1.027-.51-2.458v-.016q0-1.415.518-2.441a3.7 3.7 0 0 1 1.463-1.584q.954-.55 2.271-.55 1.318 0 2.264.55a3.7 3.7 0 0 1 1.471 1.576q.517 1.026.517 2.449v.016q0 1.43-.517 2.458a3.7 3.7 0 0 1-1.463 1.584q-.945.55-2.272.55m0-1.633q.696 0 1.18-.348.494-.355.752-1.01.26-.663.259-1.593v-.016q0-.938-.259-1.592-.258-.663-.751-1.011-.486-.355-1.18-.355-.696 0-1.189.355-.494.348-.752 1.011-.258.654-.258 1.592v.016q0 .93.258 1.593.259.663.744 1.01.493.348 1.196.348m6.354 1.455v-12.255h2.013v4.778h.137q.316-.72.954-1.124.639-.404 1.593-.404.985 0 1.665.388a2.43 2.43 0 0 1 1.027 1.115q.355.736.355 1.787v5.715h-2.013v-5.246q0-1.035-.436-1.552-.429-.518-1.342-.518-.599 0-1.035.267a1.76 1.76 0 0 0-.67.752q-.235.485-.235 1.148v5.149zm10.12 0v-8.835h2.014v1.358h.137q.315-.72.954-1.124t1.593-.404q1.479 0 2.263.857.784.856.784 2.433v5.715H82.72v-5.246q0-1.035-.436-1.552-.429-.518-1.342-.518-.599 0-1.035.267a1.76 1.76 0 0 0-.67.752q-.235.485-.235 1.148v5.149zm14.746 0v-11.665h4.373q1.738 0 2.959.679a4.5 4.5 0 0 1 1.875 1.973q.655 1.293.655 3.12v.016q0 1.868-.647 3.185a4.56 4.56 0 0 1-1.875 2.005q-1.221.687-2.967.687zm2.085-1.754h2.013q1.155 0 1.972-.477a3.03 3.03 0 0 0 1.237-1.39q.429-.913.429-2.223v-.017q0-1.277-.437-2.182-.427-.914-1.245-1.391-.816-.476-1.956-.476h-2.013zm13.775 1.932q-1.318 0-2.272-.55a3.74 3.74 0 0 1-1.471-1.584q-.509-1.027-.509-2.458v-.016q0-1.415.517-2.441a3.7 3.7 0 0 1 1.463-1.584q.954-.55 2.272-.55t2.263.55a3.67 3.67 0 0 1 1.471 1.576q.518 1.026.518 2.449v.016q0 1.43-.518 2.458a3.7 3.7 0 0 1-1.463 1.584q-.945.55-2.271.55m0-1.633q.695 0 1.18-.348.493-.355.752-1.01.258-.663.258-1.593v-.016q0-.938-.258-1.592-.259-.663-.752-1.011-.485-.355-1.18-.355-.696 0-1.189.355-.493.348-.751 1.011-.26.654-.259 1.592v.016q0 .93.259 1.593.258.663.743 1.01.493.348 1.197.348m10.056 1.633q-1.318 0-2.264-.558a3.7 3.7 0 0 1-1.447-1.584q-.509-1.028-.509-2.433v-.009q0-1.39.501-2.425.51-1.034 1.439-1.6.93-.574 2.183-.574 1.261 0 2.166.558a3.65 3.65 0 0 1 1.407 1.544q.493.995.493 2.328v.663h-7.178v-1.35h6.192l-.954 1.261v-.801q0-.88-.267-1.463-.267-.582-.744-.873a2 2 0 0 0-1.091-.291 2.03 2.03 0 0 0-1.107.307q-.478.3-.76.89-.275.582-.275 1.43v.809q0 .816.275 1.398.275.574.776.889.509.308 1.204.308.541 0 .93-.154.396-.162.639-.38.242-.227.339-.428l.024-.057h1.908l-.016.073q-.105.428-.388.873a3.3 3.3 0 0 1-.752.816 3.9 3.9 0 0 1-1.148.607q-.679.226-1.576.226m195.694-5.367.701-1.216-1.979-1.109 1.979-1.127-.692-1.225-1.882 1.145.098-2.086h-1.606l.097 2.077-1.89-1.136-.684 1.225 1.971 1.118-1.971 1.109.684 1.225 1.89-1.136-.106 2.086h1.615l-.098-2.086zm8.432 0 .701-1.216-1.979-1.109 1.979-1.127-.692-1.225-1.882 1.145.098-2.086h-1.607l.098 2.077-1.891-1.136-.683 1.225 1.97 1.118-1.97 1.109.683 1.225 1.891-1.136-.107 2.086H320l-.098-2.086zm8.431 0 .701-1.216-1.979-1.109 1.979-1.127-.692-1.225-1.881 1.145.097-2.086h-1.606l.097 2.077-1.89-1.136-.683 1.225 1.97 1.118-1.97 1.109.683 1.225 1.89-1.136-.106 2.086h1.615l-.097-2.086z" fill="#696974"/><path d="m51.875 62.438-5.461-16.35h3.807l3.693 12.758h.102l3.705-12.757h3.807l-5.472 16.349zm11.659 0v-16.35h3.421v16.35zm6.526 0v-16.35h6.764q1.847 0 3.15.635 1.314.623 2.005 1.79.703 1.167.703 2.799v.022q0 1.609-.794 2.867a4.45 4.45 0 0 1-2.164 1.79l3.445 6.447h-3.886L76.246 56.5h-2.764v5.937zm3.421-8.498h2.98q1.281 0 1.994-.68.726-.69.726-1.903v-.023q0-1.177-.748-1.87-.748-.701-2.017-.702h-2.934zm15.738 8.498V48.91h-4.781v-2.821h12.984v2.82h-4.781v13.529zm17.29.328q-2.096 0-3.637-.759-1.53-.759-2.379-2.118-.84-1.372-.839-3.184V46.089h3.422v10.31q0 1.053.396 1.835a2.93 2.93 0 0 0 1.167 1.201q.77.43 1.87.431 1.1 0 1.858-.43a2.84 2.84 0 0 0 1.167-1.202q.396-.781.397-1.835v-10.31h3.421v10.616q0 1.813-.838 3.184-.827 1.359-2.368 2.118-1.53.76-3.637.76m8.43-.328 5.699-16.35h2.991v3.207h-1.031l-4.068 13.143zm3.059-3.966.838-2.56h7.603l.838 2.56zm8.758 3.966L122.7 49.295v-3.206h1.96l5.699 16.349zm5.597 0v-16.35h3.422v13.529h7.194v2.82z" fill="#9D9DA8"/><path d="m60.08 193.299 1.382-2.433-4.302-2.453 4.321-2.491-1.401-2.433-4.146 2.53.175-4.613h-3.133l.175 4.613-4.146-2.53-1.362 2.433 4.262 2.472-4.282 2.452 1.363 2.453 4.165-2.53-.175 4.612h3.133l-.175-4.612zm17.595 0 1.382-2.433-4.301-2.453 4.32-2.491-1.4-2.433-4.146 2.53.175-4.613H70.57l.175 4.613-4.146-2.53-1.362 2.433 4.263 2.472-4.282 2.452 1.362 2.453 4.165-2.53-.175 4.612h3.134l-.175-4.612zm17.596 0 1.382-2.433-4.302-2.453 4.321-2.491-1.401-2.433-4.146 2.53.175-4.613h-3.134l.176 4.613-4.146-2.53-1.363 2.433 4.263 2.472-4.282 2.452 1.362 2.453 4.166-2.53-.176 4.612H91.3l-.175-4.612zm17.595 0 1.382-2.433-4.301-2.453 4.32-2.491-1.401-2.433-4.146 2.53.175-4.613h-3.133l.175 4.613-4.146-2.53-1.362 2.433 4.262 2.472-4.282 2.452 1.363 2.453 4.165-2.53-.175 4.612h3.133l-.175-4.612zm25.186 0 1.382-2.433-4.301-2.453 4.321-2.491-1.402-2.433-4.145 2.53.175-4.613h-3.134l.175 4.613-4.146-2.53-1.362 2.433 4.263 2.472-4.283 2.452 1.363 2.453 4.165-2.53-.175 4.612h3.134l-.175-4.612zm17.596 0 1.382-2.433-4.302-2.453 4.321-2.491-1.401-2.433-4.146 2.53.175-4.613h-3.134l.176 4.613-4.146-2.53-1.363 2.433 4.263 2.472-4.282 2.452 1.362 2.453 4.166-2.53-.176 4.612h3.134l-.175-4.612zm17.595 0 1.382-2.433-4.302-2.453 4.321-2.491-1.401-2.433-4.146 2.53.175-4.613h-3.133l.175 4.613-4.146-2.53-1.362 2.433 4.262 2.472-4.282 2.452 1.363 2.453 4.165-2.53-.175 4.612h3.133l-.175-4.612zm17.595 0 1.382-2.433-4.301-2.453 4.321-2.491-1.402-2.433-4.145 2.53.175-4.613h-3.134l.175 4.613-4.146-2.53-1.362 2.433 4.263 2.472-4.282 2.452 1.362 2.453 4.165-2.53-.175 4.612h3.134l-.175-4.612zm25.187 0 1.382-2.433-4.302-2.453 4.321-2.491-1.401-2.433-4.146 2.53.175-4.613h-3.134l.176 4.613-4.146-2.53-1.363 2.433 4.263 2.472-4.282 2.452 1.362 2.453 4.166-2.53-.176 4.612h3.134l-.175-4.612zm17.595 0 1.382-2.433-4.302-2.453 4.321-2.491-1.401-2.433-4.146 2.53.175-4.613h-3.133l.175 4.613-4.146-2.53-1.362 2.433 4.262 2.472-4.282 2.452 1.363 2.453 4.165-2.53-.175 4.612h3.133l-.175-4.612zm17.595 0 1.382-2.433-4.301-2.453 4.321-2.491-1.402-2.433-4.145 2.53.175-4.613h-3.134l.175 4.613-4.146-2.53-1.362 2.433 4.263 2.472-4.282 2.452 1.362 2.453 4.165-2.53-.175 4.612h3.134l-.175-4.612zm17.596 0 1.382-2.433-4.302-2.453 4.321-2.491-1.401-2.433-4.146 2.53.175-4.613h-3.134l.176 4.613-4.146-2.53-1.363 2.433 4.263 2.472-4.282 2.452 1.362 2.453 4.166-2.53-.176 4.612h3.134l-.175-4.612zm25.186 0 1.382-2.433-4.302-2.453 4.321-2.491-1.401-2.433-4.146 2.53.175-4.613h-3.133l.175 4.613-4.146-2.53-1.362 2.433 4.262 2.472-4.282 2.452 1.363 2.453 4.165-2.53-.175 4.612h3.133l-.175-4.612zm17.595 0 1.382-2.433-4.301-2.453 4.321-2.491-1.402-2.433-4.145 2.53.175-4.613h-3.134l.175 4.613-4.146-2.53-1.362 2.433 4.263 2.472-4.282 2.452 1.362 2.453 4.165-2.53-.175 4.612h3.134l-.175-4.612zm17.596 0 1.382-2.433-4.302-2.453 4.321-2.491-1.401-2.433-4.146 2.53.175-4.613h-3.134l.176 4.613-4.146-2.53-1.363 2.433 4.263 2.472-4.282 2.452 1.362 2.453 4.166-2.53-.176 4.612h3.134l-.175-4.612zm17.595 0 1.382-2.433-4.301-2.453 4.321-2.491-1.402-2.433-4.146 2.53.176-4.613h-3.134l.175 4.613-4.146-2.53-1.362 2.433 4.262 2.472-4.282 2.452 1.363 2.453 4.165-2.53-.175 4.612h3.134l-.176-4.612z" fill="#696974"/><path d="M380.863 42.311c-3.443 1.133-5.753 3.865-6.33 7.463-.111.8-.222 4.664-.222 8.595v7.174h3.753l.067-7.951c.066-7.507.089-7.974.533-8.929.955-2.043 2.798-3.131 5.308-3.131 1.866 0 2.91.377 4.109 1.532 1.71 1.666 1.777 2.088 1.777 10.972v7.507h3.776v-7.396c0-7.973-.156-9.373-1.2-11.416-.755-1.51-2.376-3.043-4.109-3.91-1.354-.665-1.643-.71-4.02-.754-1.643-.045-2.865.044-3.442.244m23.831.111c-3.242 1.044-5.663 3.42-6.996 6.841-.444 1.155-.599 2.043-.688 3.842-.111 2.732.133 4.243 1.088 6.242 2.043 4.33 5.375 6.418 10.195 6.418 2.665 0 4.486-.51 6.418-1.799 3.132-2.087 4.909-5.752 4.909-10.083 0-2.421-.4-4.11-1.488-6.153-1.377-2.643-3.509-4.442-6.264-5.286-1.865-.577-5.374-.6-7.174-.022m6.308 3.51c1.377.421 3.11 1.998 3.82 3.464 1.244 2.577 1.266 6.419 0 8.973-.688 1.444-2.42 3.02-3.798 3.487-.599.2-1.754.356-2.731.356-2.177 0-3.487-.467-4.865-1.688-2.043-1.844-2.998-4.998-2.509-8.24.844-5.309 5.019-7.952 10.083-6.353m13.082-3.109c.111.333 1.599 4.064 3.265 8.284l3.043 7.663 2.554.067 2.554.066 3.154-7.951c1.733-4.376 3.221-8.13 3.31-8.351.133-.333-.045-.378-1.866-.378h-1.999l-1.111 2.821c-.599 1.577-1.732 4.509-2.509 6.552-.778 2.066-1.466 3.731-1.533 3.731s-1.221-2.931-2.576-6.507l-2.466-6.486-2.021-.066-2.021-.067zm28.23.555c-.245.644-2.399 5.908-4.776 11.66l-4.309 10.506h4.109l1.067-2.665 1.066-2.665 5.885.044 5.886.067 1.022 2.554 1.022 2.554 2.065.067c1.888.066 2.043.022 1.932-.333-.066-.222-2.221-5.442-4.753-11.616l-4.642-11.217-2.554-.066-2.554-.067zm5.352 7.996 2.11 5.286h-8.839l.422-1.11c1.799-4.731 3.909-9.75 4.042-9.618.089.111 1.11 2.555 2.265 5.442m-32.494 12.504v1.666h15.326v-3.331h-15.326z" fill="#fff"/><defs><linearGradient id="a" x1="1.311" y1="315.73" x2="356.89" y2="342.111" gradientUnits="userSpaceOnUse"><stop stop-color="#6724F5"/><stop offset="1" stop-color="#6529F7"/></linearGradient><linearGradient id="c" x1="46.025" y1="98.284" x2="105.415" y2="145.7" gradientUnits="userSpaceOnUse"><stop stop-color="#ABABAB"/><stop offset=".313" stop-color="#fff"/><stop offset=".63" stop-color="#BDBDBD"/><stop offset="1" stop-color="#5E5E5E"/></linearGradient><linearGradient id="d" x1="48.445" y1="100.946" x2="107.835" y2="143.522" gradientUnits="userSpaceOnUse"><stop stop-color="#7D7D7D"/><stop offset=".495" stop-color="#fff"/><stop offset="1" stop-color="#1C1C1C"/></linearGradient><filter id="b" x="46.025" y="98.284" width="66.284" height="47.415" filterUnits="userSpaceOnUse" color-interpolation-filters="sRGB"><feFlood flood-opacity="0" result="BackgroundImageFix"/><feBlend in="SourceGraphic" in2="BackgroundImageFix" result="shape"/><feColorMatrix in="SourceAlpha" values="0 0 0 0 0 0 0 0 0 0 0 0 0 0 0 0 0 0 127 0" result="hardAlpha"/><feOffset dx="-.726" dy="-.726"/><feComposite in2="hardAlpha" operator="arithmetic" k2="-1" k3="1"/><feColorMatrix values="0 0 0 0 0 0 0 0 0 0 0 0 0 0 0 0 0 0 0.25 0"/><feBlend in2="shape" result="effect1_innerShadow_42_110"/></filter></defs></svg>