<svg width="20" height="20" viewBox="0 0 20 20" fill="none" xmlns="http://www.w3.org/2000/svg">
<path fill-rule="evenodd" clip-rule="evenodd" d="M10.0001 12.4757L16.1869 18.6625C16.5152 18.9908 16.9605 19.1752 17.4248 19.1752C17.8891 19.1752 18.3343 18.9908 18.6626 18.6625C18.9909 18.3342 19.1753 17.8889 19.1753 17.4247C19.1753 16.9604 18.9909 16.5151 18.6626 16.1868L12.4734 10L18.6614 3.81317C18.8239 3.65061 18.9528 3.45765 19.0407 3.24529C19.1286 3.03293 19.1738 2.80534 19.1738 2.5755C19.1737 2.34567 19.1284 2.1181 19.0404 1.90578C18.9524 1.69346 18.8234 1.50056 18.6609 1.33808C18.4983 1.1756 18.3053 1.04673 18.093 0.958832C17.8806 0.870929 17.653 0.825713 17.4232 0.825767C17.1934 0.825821 16.9658 0.871144 16.7535 0.959147C16.5412 1.04715 16.3483 1.17611 16.1858 1.33867L10.0001 7.5255L3.81327 1.33867C3.65192 1.17145 3.45888 1.03804 3.24542 0.946225C3.03195 0.85441 2.80234 0.806027 2.56998 0.803899C2.33762 0.801771 2.10716 0.84594 1.89205 0.933831C1.67694 1.02172 1.48149 1.15157 1.3171 1.31581C1.15271 1.48004 1.02268 1.67537 0.934585 1.89039C0.846492 2.10542 0.802105 2.33584 0.804014 2.5682C0.805923 2.80057 0.854089 3.03022 0.945703 3.24377C1.03732 3.45732 1.17054 3.65049 1.33761 3.812L7.52677 10L1.33877 16.188C1.17171 16.3495 1.03848 16.5427 0.94687 16.7562C0.855256 16.9698 0.80709 17.1994 0.805181 17.4318C0.803272 17.6642 0.847659 17.8946 0.935752 18.1096C1.02384 18.3246 1.15388 18.52 1.31827 18.6842C1.48266 18.8484 1.67811 18.9783 1.89322 19.0662C2.10833 19.1541 2.33879 19.1982 2.57115 19.1961C2.80351 19.194 3.03312 19.1456 3.24658 19.0538C3.46005 18.962 3.65309 18.8286 3.81444 18.6613L10.0001 12.4757Z" fill="white"/>
</svg>
