<svg width="152" height="60" viewBox="0 0 152 60" fill="none" xmlns="http://www.w3.org/2000/svg">
<path d="M23.931 13.7736C25.6354 13.2042 27.4574 12.8983 29.3547 12.8983C37.6277 12.8983 44.535 18.7745 46.1171 26.5851L57.8445 24.1929C55.153 10.919 43.4227 0.929443 29.3547 0.929443C26.1311 0.929443 23.0343 1.45481 20.1372 2.42279L23.931 13.7736Z" fill="#FFCC00"/>
<path d="M10.0907 51.7808L18.0213 42.8145C14.4812 39.6783 12.2476 35.1011 12.2476 30.0016C12.2476 24.9058 14.4781 20.3308 18.016 17.1984L10.0846 8.23071C4.07253 13.5573 0.278809 21.3376 0.278809 30.0016C0.278809 38.6709 4.07405 46.4535 10.0907 51.7808Z" fill="#00A0DE"/>
<path d="M46.1141 33.4338C44.5251 41.2408 37.6255 47.1055 29.3548 47.1055C27.4569 47.1055 25.6294 46.7995 23.9258 46.2271L20.1267 57.5825C23.0246 58.5497 26.1275 59.0736 29.3548 59.0736C43.4092 59.0736 55.1381 49.1006 57.8399 35.839L46.1141 33.4338Z" fill="#EC3413"/>
<path d="M68.0997 43.1928C67.7157 42.5703 67.1933 41.575 66.879 40.8424C65.0219 36.5308 64.9332 32.069 66.5017 27.7856C68.2258 23.0883 71.52 19.4921 75.776 17.6609C81.1269 15.3582 87.0449 15.8122 92.1732 18.8551C95.431 20.7242 97.7405 23.6099 99.4942 27.6898L99.657 28.0864L99.9605 28.8747C100.009 29.0018 100.058 29.1255 100.105 29.244L68.0997 43.1928ZM78.7871 24.5825C74.9872 26.2156 73.0285 29.78 73.4309 33.9593L89.5274 27.0317C86.7594 23.7786 83.1569 22.7004 78.7871 24.5825ZM97.7565 43.8153L91.5347 39.6556L91.5257 39.6648L91.1924 39.44C90.232 40.9987 88.7333 42.2612 86.8422 43.0812C83.2443 44.6459 79.9099 44.2435 77.5154 42.1436L77.2952 42.4783C77.2929 42.4745 77.2922 42.4716 77.2883 42.4716L73.2046 48.5809C74.2182 49.2853 75.3068 49.8821 76.4501 50.3589C80.9614 52.2326 85.5766 52.146 90.1234 50.1684C93.4123 48.7432 95.9929 46.5697 97.7565 43.8153ZM111.292 8.66357V42.6288L116.573 44.7689L113.572 51.7702L107.743 49.343C106.435 48.7767 105.544 47.9096 104.87 46.9311C104.226 45.9335 103.743 44.5646 103.743 42.7213V8.66357H111.292ZM124.972 33.9761C124.975 31.0836 126.252 28.4901 128.273 26.7272L122.856 20.6862C119.181 23.9342 116.867 28.68 116.862 33.9677C116.856 39.2572 119.167 44.0081 122.838 47.2644L128.25 41.2174C126.239 39.4477 124.97 36.8618 124.972 33.9761ZM134.598 43.6164C133.531 43.6134 132.504 43.4373 131.546 43.1184L128.959 50.8113C130.727 51.405 132.621 51.7285 134.59 51.7315C143.168 51.7399 150.331 45.6533 151.991 37.5618L144.038 35.9379C143.134 40.3238 139.25 43.6195 134.598 43.6164ZM134.622 16.2389C132.655 16.2367 130.762 16.5563 128.996 17.1446L131.561 24.8444C132.522 24.5271 133.549 24.3517 134.614 24.3517C139.277 24.3563 143.164 27.6716 144.047 32.0698L152 30.4564C150.363 22.3534 143.207 16.2442 134.622 16.2389Z" fill="white"/>
</svg>
