<svg width="157" height="157" viewBox="0 0 157 157" fill="none" xmlns="http://www.w3.org/2000/svg">
<foreignObject x="0.444443" y="0.401962" width="156.115" height="156.115"><div xmlns="http://www.w3.org/1999/xhtml" style="backdrop-filter:blur(2.37px);clip-path:url(#bgblur_0_1_291_clip_path);height:100%;width:100%"></div></foreignObject><g filter="url(#filter0_d_1_291)" data-figma-bg-blur-radius="4.74074">
<rect x="36" y="35.9575" width="85.0041" height="85.0041" rx="42.502" fill="url(#paint0_linear_1_291)" shape-rendering="crispEdges"/>
<rect x="36.5926" y="36.5501" width="83.8189" height="83.8189" rx="41.9094" stroke="url(#paint1_linear_1_291)" stroke-width="1.18519" style="mix-blend-mode:overlay" shape-rendering="crispEdges"/>
<g clip-path="url(#clip1_1_291)">
<path d="M79 52.4595C93.3598 52.4595 105 64.0997 105 78.4595C105 92.8193 93.3598 104.459 79 104.459C64.6402 104.459 53 92.8193 53 78.4595C53 64.0997 64.6402 52.4595 79 52.4595ZM79 56.0865C73.0663 56.0865 67.3757 58.4436 63.1799 62.6394C58.9841 66.8351 56.627 72.5258 56.627 78.4595C56.627 84.3932 58.9841 90.0838 63.1799 94.2796C67.3757 98.4753 73.0663 100.832 79 100.832C84.9337 100.832 90.6243 98.4753 94.8201 94.2796C99.0159 90.0838 101.373 84.3932 101.373 78.4595C101.373 72.5258 99.0159 66.8351 94.8201 62.6394C90.6243 58.4436 84.9337 56.0865 79 56.0865ZM84.3248 61.5283C86.0152 62.1673 87.5958 63.0656 89.01 64.1907C89.3341 64.4403 89.6487 64.7063 89.9538 64.9889C90.0093 65.0374 90.063 65.0894 90.115 65.1449C90.9678 65.9327 91.7426 66.8193 92.429 67.7709L92.715 68.1531C92.8797 68.3992 93.0391 68.6505 93.1934 68.9071C93.3182 69.1081 93.4387 69.3127 93.5548 69.5207C93.6865 69.7529 93.8131 69.9895 93.9344 70.2305C94.0696 70.4991 94.1987 70.773 94.3218 71.0521C94.4076 71.2419 94.5038 71.4369 94.5818 71.6397C94.7707 72.1111 94.9415 72.5895 95.094 73.0749L95.2292 73.5689C95.4899 74.4947 95.6768 75.4397 95.7882 76.3951C95.8064 76.5667 95.8324 76.7487 95.8454 76.9177C95.8991 77.4775 95.9277 78.0409 95.9312 78.6077C95.9305 79.7153 95.8287 80.8206 95.627 81.9097L95.523 82.4739C95.419 82.9661 95.2977 83.4515 95.159 83.9299C93.8356 83.3241 92.2808 82.4323 91.8752 81.4521C91.1368 79.6841 89.1712 78.8001 88.3704 76.5225C87.0522 72.7525 88.802 72.8513 89.0464 70.5113C89.1608 69.4141 88.3704 69.1853 87.3278 69.6325C84.8942 70.6543 84.07 70.2617 83.5786 68.4287C83.0872 66.6009 83.5786 66.0913 83.5786 66.0913C81.9198 66.2733 81.8574 64.2531 82.718 63.7435C83.316 63.4003 83.823 62.3473 84.3248 61.5283ZM77.3724 72.7317C78.9064 72.0297 80.3234 71.7775 80.1362 70.5711C79.9542 69.3777 79.5226 68.4885 77.1254 68.4885C74.7282 68.4885 75.7734 71.7775 73.8078 69.8145C71.8422 67.8645 74.2368 68.3689 75.2196 67.9243C76.205 67.4771 77.1878 65.6441 75.4666 65.5141C73.748 65.3919 74.1146 66.2733 72.7626 65.7741C71.4106 65.2645 70.797 67.5395 69.9338 67.2223C69.367 67.0091 67.846 65.8391 66.8372 64.6873C64.7787 66.4777 63.149 68.708 62.0688 71.2133C62.3626 74.6115 64.1592 76.3951 64.1592 76.3951C64.1592 76.3951 65.0822 78.6077 70.615 81.3273C70.615 81.3273 71.655 81.3897 70.4278 80.1287C69.2006 78.8625 67.846 77.2817 69.3826 76.4627C70.9166 75.6333 71.3508 75.7035 71.72 77.2245C72.0866 78.7429 73.319 77.8485 73.4386 76.3951C73.5634 74.9469 75.8358 73.4337 77.3724 72.7317ZM76.2024 80.3731C78.8492 80.3731 78.6022 81.1973 80.6926 83.0381C82.7804 84.8685 81.6754 86.7015 80.6276 88.0951C79.585 89.4835 78.662 91.0591 78.1706 93.9139C77.6766 96.7583 76.387 94.7303 75.9606 94.0361C75.529 93.3367 74.853 92.7075 75.0402 89.7981C75.2222 86.8913 73.254 88.6021 72.5806 84.8061C71.9046 81.0153 73.5634 80.3757 76.205 80.3757M89.1452 82.8821C89.8498 82.4323 91.5372 83.6049 91.1732 84.8399C90.8014 86.0749 89.6366 85.3781 89.0516 84.8399C88.4666 84.3043 88.4354 83.3241 89.1452 82.8821Z" fill="#D9C7FF"/>
</g>
</g>
<defs>
<filter id="filter0_d_1_291" x="0.444443" y="0.401962" width="156.115" height="156.115" filterUnits="userSpaceOnUse" color-interpolation-filters="sRGB">
<feFlood flood-opacity="0" result="BackgroundImageFix"/>
<feColorMatrix in="SourceAlpha" type="matrix" values="0 0 0 0 0 0 0 0 0 0 0 0 0 0 0 0 0 0 127 0" result="hardAlpha"/>
<feOffset/>
<feGaussianBlur stdDeviation="17.7778"/>
<feComposite in2="hardAlpha" operator="out"/>
<feColorMatrix type="matrix" values="0 0 0 0 0.584314 0 0 0 0 0.168627 0 0 0 0 1 0 0 0 1 0"/>
<feBlend mode="normal" in2="BackgroundImageFix" result="effect1_dropShadow_1_291"/>
<feBlend mode="normal" in="SourceGraphic" in2="effect1_dropShadow_1_291" result="shape"/>
</filter>
<clipPath id="bgblur_0_1_291_clip_path" transform="translate(-0.444443 -0.401962)"><rect x="36" y="35.9575" width="85.0041" height="85.0041" rx="42.502"/>
</clipPath><linearGradient id="paint0_linear_1_291" x1="78.502" y1="35.9575" x2="78.502" y2="120.962" gradientUnits="userSpaceOnUse">
<stop stop-color="#952BFF"/>
<stop offset="1" stop-color="#451576"/>
</linearGradient>
<linearGradient id="paint1_linear_1_291" x1="68.1421" y1="94.9177" x2="106.122" y2="41.1235" gradientUnits="userSpaceOnUse">
<stop stop-color="white"/>
<stop offset="1" stop-color="white" stop-opacity="0.5"/>
</linearGradient>
<clipPath id="clip1_1_291">
<rect width="52" height="52" fill="white" transform="translate(53 52.4595)"/>
</clipPath>
</defs>
</svg>
