<svg width="18" height="19" viewBox="0 0 18 19" fill="none" xmlns="http://www.w3.org/2000/svg">
<path d="M18 9.52451C18 8.89045 17.949 8.25638 17.847 7.63525H9.18652V11.2197H14.1481C13.944 12.3713 13.2808 13.4066 12.3114 14.0536V16.3828H15.2705C17.0052 14.7653 18 12.3713 18 9.52451Z" fill="#4285F4"/>
<path d="M9.18686 18.6346C11.6613 18.6346 13.753 17.8064 15.2709 16.383L12.3118 14.0537C11.4827 14.6231 10.4241 14.9466 9.18686 14.9466C6.78898 14.9466 4.76099 13.3032 4.03397 11.1034H0.985596V13.5103C2.54167 16.6547 5.71759 18.6346 9.18686 18.6346Z" fill="#34A853"/>
<path d="M4.03431 11.1032C3.65161 9.95155 3.65161 8.69635 4.03431 7.53174V5.13782H0.985457C-0.328486 7.76466 -0.328486 10.8703 0.985457 13.4971L4.03431 11.1032Z" fill="#FBBC04"/>
<path d="M9.18686 3.6885C10.5006 3.66262 11.7633 4.16729 12.7072 5.08604L15.3346 2.42037C13.6638 0.841672 11.47 -0.0253171 9.18686 0.000563167C5.71759 0.000563167 2.54167 1.99334 0.985596 5.1378L4.03397 7.54466C4.76098 5.3319 6.78898 3.6885 9.18686 3.6885Z" fill="#EA4335"/>
</svg>
