<svg width="26" height="27" viewBox="0 0 26 27" fill="none" xmlns="http://www.w3.org/2000/svg">
<rect x="0.25" y="0.25" width="25.5" height="26.5" rx="8.75" stroke="white" stroke-opacity="0.5" stroke-width="0.5"/>
<path d="M10.2 7.3335H15.8C17.9333 7.3335 19.6667 9.06683 19.6667 11.2002V16.8002C19.6667 17.8257 19.2593 18.8092 18.5342 19.5343C17.809 20.2594 16.8255 20.6668 15.8 20.6668H10.2C8.06668 20.6668 6.33334 18.9335 6.33334 16.8002V11.2002C6.33334 10.1747 6.74072 9.19116 7.46586 8.46602C8.191 7.74088 9.17451 7.3335 10.2 7.3335ZM10.0667 8.66683C9.43016 8.66683 8.81971 8.91969 8.36962 9.36977C7.91953 9.81986 7.66668 10.4303 7.66668 11.0668V16.9335C7.66668 18.2602 8.74001 19.3335 10.0667 19.3335H15.9333C16.5699 19.3335 17.1803 19.0806 17.6304 18.6306C18.0805 18.1805 18.3333 17.57 18.3333 16.9335V11.0668C18.3333 9.74016 17.26 8.66683 15.9333 8.66683H10.0667ZM16.5 9.66683C16.721 9.66683 16.933 9.75463 17.0893 9.91091C17.2455 10.0672 17.3333 10.2791 17.3333 10.5002C17.3333 10.7212 17.2455 10.9331 17.0893 11.0894C16.933 11.2457 16.721 11.3335 16.5 11.3335C16.279 11.3335 16.067 11.2457 15.9108 11.0894C15.7545 10.9331 15.6667 10.7212 15.6667 10.5002C15.6667 10.2791 15.7545 10.0672 15.9108 9.91091C16.067 9.75463 16.279 9.66683 16.5 9.66683ZM13 10.6668C13.8841 10.6668 14.7319 11.018 15.357 11.6431C15.9822 12.2683 16.3333 13.1161 16.3333 14.0002C16.3333 14.8842 15.9822 15.7321 15.357 16.3572C14.7319 16.9823 13.8841 17.3335 13 17.3335C12.116 17.3335 11.2681 16.9823 10.643 16.3572C10.0179 15.7321 9.66668 14.8842 9.66668 14.0002C9.66668 13.1161 10.0179 12.2683 10.643 11.6431C11.2681 11.018 12.116 10.6668 13 10.6668ZM13 12.0002C12.4696 12.0002 11.9609 12.2109 11.5858 12.5859C11.2107 12.961 11 13.4697 11 14.0002C11 14.5306 11.2107 15.0393 11.5858 15.4144C11.9609 15.7894 12.4696 16.0002 13 16.0002C13.5304 16.0002 14.0392 15.7894 14.4142 15.4144C14.7893 15.0393 15 14.5306 15 14.0002C15 13.4697 14.7893 12.961 14.4142 12.5859C14.0392 12.2109 13.5304 12.0002 13 12.0002Z" fill="white"/>
</svg>
