<svg width="93" height="24" viewBox="0 0 93 24" fill="none" xmlns="http://www.w3.org/2000/svg">
<path d="M6.55208 0.311125C3.10946 1.44386 0.799576 4.17574 0.222105 7.77384C0.111052 8.57341 0 12.438 0 16.3693V23.5433H1.86568H3.75357L3.8202 15.5919C3.88683 8.08478 3.90904 7.61836 4.35325 6.66331C5.3083 4.61995 7.15177 3.53164 9.66155 3.53164C11.5272 3.53164 12.5711 3.90922 13.7705 5.06416C15.4807 6.72995 15.5473 7.15195 15.5473 16.0361V23.5433H17.4352H19.3231V16.1472C19.3231 8.17362 19.1676 6.77437 18.1237 4.731C17.3686 3.22069 15.7472 1.68817 14.0148 0.821966C12.66 0.155651 12.3712 0.111231 9.9947 0.0668106C8.35113 0.0223885 7.12955 0.111231 6.55208 0.311125Z" fill="white"/>
<path d="M30.3839 0.422165C27.1412 1.46605 24.7202 3.84258 23.3876 7.26298C22.9434 8.41793 22.7879 9.30635 22.6991 11.1054C22.588 13.8373 22.8323 15.3476 23.7874 17.3465C25.8308 21.6776 29.1623 23.7654 33.982 23.7654C36.6472 23.7654 38.4685 23.2545 40.4008 21.9663C43.5325 19.8785 45.3093 16.2138 45.3093 11.8828C45.3093 9.46182 44.9095 7.77382 43.8212 5.73046C42.4442 3.08742 40.312 1.28837 37.5579 0.444374C35.6922 -0.133097 32.1829 -0.155308 30.3839 0.422165ZM36.6917 3.93142C38.0687 4.35341 39.8011 5.93036 40.5119 7.39625C41.7556 9.97266 41.7779 13.8151 40.5119 16.3693C39.8233 17.8129 38.0909 19.3899 36.7139 19.8563C36.1142 20.0562 34.9593 20.2117 33.982 20.2117C31.8054 20.2117 30.4949 19.7453 29.1179 18.5237C27.0745 16.6802 26.1195 13.5263 26.6081 10.2836C27.4521 4.97531 31.6277 2.33226 36.6917 3.93142Z" fill="white"/>
<path d="M49.7736 0.82197C49.8847 1.15513 51.3728 4.88648 53.0386 9.10647L56.0814 16.7691L58.6356 16.8357L61.1898 16.9023L64.3437 8.95099C66.0761 4.57554 67.5642 0.82197 67.653 0.599865C67.7863 0.266708 67.6086 0.222288 65.7874 0.222288H63.7884L62.6779 3.04301C62.0782 4.61996 60.9455 7.55174 60.1681 9.5951C59.3907 11.6607 58.7022 13.3265 58.6356 13.3265C58.569 13.3265 57.414 10.3947 56.0592 6.81879L53.5938 0.33334L51.5727 0.266708L49.5515 0.200077L49.7736 0.82197Z" fill="white"/>
<path d="M78.0031 1.37723C77.7588 2.02133 75.6044 7.28521 73.2279 13.0377L68.919 23.5433H70.9624H73.028L74.0941 20.878L75.1602 18.2128L81.0459 18.2572L86.9317 18.3238L87.9534 20.878L88.9751 23.4322L91.0406 23.4988C92.9285 23.5655 93.084 23.521 92.973 23.1657C92.9063 22.9436 90.7519 17.7241 88.2199 11.5496L83.5779 0.333338L81.0237 0.266706L78.4695 0.200075L78.0031 1.37723ZM83.3558 9.37299L85.4658 14.6591H81.0459H76.6261L77.0481 13.5486C78.8471 8.81773 80.9571 3.79817 81.0904 3.93143C81.1792 4.04248 82.2009 6.48563 83.3558 9.37299Z" fill="white"/>
<path d="M50.8619 21.8775V23.5433H58.5245H66.1872V21.8775V20.2117H58.5245H50.8619V21.8775Z" fill="white"/>
</svg>
