<svg width="153" height="119" viewBox="0 0 153 119" fill="none" xmlns="http://www.w3.org/2000/svg">
<path d="M28.224 117.348V109.534C28.2699 108.877 28.175 108.218 27.9459 107.6C27.7168 106.982 27.3586 106.421 26.8953 105.952C26.4319 105.484 25.874 105.12 25.2589 104.884C24.6437 104.649 23.9854 104.547 23.3277 104.586C22.4671 104.53 21.6071 104.706 20.8375 105.095C20.068 105.484 19.4169 106.073 18.9523 106.8C18.5288 106.095 17.923 105.517 17.1988 105.127C16.4746 104.738 15.6588 104.551 14.8372 104.586C14.121 104.55 13.4078 104.702 12.7683 105.026C12.1288 105.35 11.585 105.836 11.1909 106.435V104.898H8.48218V117.348H11.2169V110.446C11.1577 110.02 11.1937 109.586 11.3221 109.176C11.4505 108.765 11.6681 108.389 11.9595 108.072C12.2508 107.756 12.6086 107.508 13.007 107.347C13.4055 107.185 13.8348 107.114 14.2641 107.138C16.0612 107.138 16.9729 108.31 16.9729 110.42V117.348H19.7076V110.446C19.6529 110.021 19.6919 109.589 19.8219 109.18C19.952 108.772 20.1699 108.397 20.4603 108.082C20.7507 107.767 21.1066 107.519 21.503 107.356C21.8994 107.193 22.3266 107.118 22.7548 107.138C24.6038 107.138 25.4893 108.31 25.4893 110.42V117.348H28.224ZM68.6974 104.898H64.2699V101.122H61.5352V104.898H59.0088V107.373H61.5352V113.05C61.5352 115.941 62.6552 117.66 65.8586 117.66C67.0554 117.664 68.2289 117.33 69.2443 116.697L68.4631 114.379C67.7368 114.812 66.9123 115.054 66.067 115.082C64.7126 115.082 64.2699 114.248 64.2699 112.998V107.373H68.6974V104.898ZM91.7991 104.586C91.1387 104.566 90.4853 104.725 89.9077 105.046C89.3302 105.367 88.8499 105.838 88.5175 106.409V104.898H85.8348V117.348H88.5434V110.368C88.5434 108.31 89.4289 107.164 91.2002 107.164C91.7795 107.156 92.3547 107.262 92.893 107.477L93.7264 104.924C93.1078 104.703 92.4561 104.589 91.7991 104.586ZM56.8733 105.888C55.3401 104.976 53.5772 104.524 51.7945 104.586C48.6431 104.586 46.6117 106.096 46.6117 108.571C46.6117 110.602 48.1222 111.852 50.9088 112.243L52.1851 112.425C53.6696 112.633 54.3729 113.024 54.3729 113.727C54.3729 114.691 53.383 115.238 51.534 115.238C50.0466 115.281 48.588 114.822 47.3929 113.936L46.1168 116.045C47.6945 117.147 49.5843 117.713 51.508 117.66C55.1021 117.66 57.1856 115.967 57.1856 113.597C57.1856 111.409 55.5449 110.263 52.8363 109.873L51.5602 109.69C50.388 109.534 49.4506 109.3 49.4506 108.467C49.4506 107.555 50.3358 107.008 51.8205 107.008C53.1838 107.029 54.5194 107.396 55.7012 108.076L56.8733 105.888ZM129.434 104.586C128.773 104.566 128.12 104.725 127.542 105.046C126.965 105.367 126.484 105.838 126.152 106.409V104.898H123.469V117.348H126.178V110.368C126.178 108.31 127.064 107.164 128.834 107.164C129.414 107.156 129.989 107.262 130.528 107.477L131.361 104.924C130.742 104.703 130.091 104.589 129.434 104.586ZM94.5336 111.123C94.4977 112 94.6457 112.875 94.9681 113.691C95.2906 114.508 95.7803 115.247 96.4058 115.863C97.0314 116.479 97.779 116.957 98.6004 117.266C99.4218 117.576 100.299 117.71 101.175 117.66C102.801 117.742 104.399 117.212 105.655 116.176L104.353 113.988C103.416 114.702 102.274 115.094 101.097 115.108C100.082 115.046 99.1287 114.6 98.4318 113.859C97.7348 113.118 97.3467 112.14 97.3467 111.123C97.3467 110.106 97.7348 109.127 98.4318 108.387C99.1287 107.646 100.082 107.2 101.097 107.138C102.274 107.152 103.416 107.544 104.353 108.258L105.655 106.07C104.399 105.034 102.801 104.504 101.175 104.586C100.299 104.536 99.4219 104.67 98.6005 104.98C97.7792 105.289 97.0316 105.767 96.406 106.383C95.7805 106.998 95.2907 107.738 94.9682 108.555C94.6457 109.371 94.4977 110.246 94.5336 111.123ZM119.901 111.123V104.898H117.193V106.409C116.73 105.813 116.132 105.337 115.448 105.02C114.764 104.702 114.013 104.554 113.26 104.586C111.581 104.668 109.999 105.393 108.84 106.61C107.682 107.827 107.035 109.443 107.035 111.123C107.035 112.803 107.682 114.419 108.84 115.636C109.999 116.853 111.581 117.578 113.26 117.66C114.013 117.692 114.764 117.544 115.448 117.227C116.132 116.909 116.73 116.433 117.193 115.837V117.348H119.901V111.123ZM109.822 111.123C109.864 110.388 110.12 109.682 110.559 109.091C110.997 108.5 111.599 108.051 112.29 107.798C112.981 107.545 113.731 107.5 114.448 107.668C115.164 107.837 115.815 108.211 116.321 108.745C116.828 109.279 117.166 109.95 117.296 110.674C117.426 111.398 117.341 112.145 117.051 112.821C116.762 113.498 116.28 114.075 115.667 114.481C115.053 114.887 114.334 115.105 113.599 115.108C113.083 115.115 112.571 115.015 112.096 114.814C111.621 114.614 111.192 114.317 110.837 113.942C110.483 113.568 110.209 113.124 110.034 112.639C109.86 112.154 109.787 111.637 109.822 111.123ZM77.136 104.586C75.4469 104.675 73.8578 105.414 72.7022 106.65C71.5466 107.885 70.9143 109.519 70.9379 111.211C70.9614 112.902 71.6391 114.519 72.8287 115.721C74.0183 116.924 75.6274 117.619 77.3184 117.66C79.1765 117.726 80.9937 117.104 82.4231 115.915L81.0947 113.91C80.0662 114.734 78.7924 115.192 77.4745 115.212C76.5795 115.287 75.6903 115.011 74.9952 114.443C74.3 113.874 73.8535 113.057 73.7502 112.165H82.9961C83.0221 111.826 83.0481 111.488 83.0481 111.123C83.0222 107.242 80.626 104.586 77.136 104.586ZM77.0838 107.008C77.902 106.992 78.6931 107.301 79.2838 107.867C79.8745 108.434 80.2167 109.211 80.2353 110.029H73.7762C73.8237 109.193 74.1964 108.409 74.8145 107.845C75.4326 107.28 76.2471 106.98 77.0838 107.008ZM145.034 111.123V99.8979H142.326V106.409C141.863 105.813 141.265 105.337 140.581 105.02C139.897 104.702 139.146 104.554 138.393 104.586C136.715 104.668 135.132 105.393 133.973 106.61C132.814 107.827 132.168 109.443 132.168 111.123C132.168 112.804 132.814 114.42 133.973 115.637C135.132 116.853 136.715 117.578 138.393 117.66C139.146 117.692 139.897 117.544 140.581 117.227C141.265 116.909 141.863 116.433 142.326 115.837V117.348H145.034V111.123ZM149.549 115.544C149.718 115.542 149.884 115.575 150.039 115.641C150.189 115.703 150.324 115.793 150.44 115.906C150.554 116.019 150.646 116.153 150.71 116.3C150.775 116.452 150.808 116.615 150.808 116.78C150.808 116.945 150.775 117.109 150.71 117.26C150.646 117.407 150.554 117.54 150.44 117.653C150.324 117.766 150.188 117.856 150.039 117.92C149.885 117.986 149.718 118.02 149.549 118.018C149.302 118.021 149.059 117.95 148.851 117.815C148.643 117.681 148.479 117.488 148.38 117.26C148.316 117.109 148.282 116.945 148.282 116.78C148.282 116.615 148.316 116.452 148.38 116.3C148.444 116.153 148.535 116.019 148.649 115.906C148.764 115.792 148.901 115.702 149.051 115.641C149.209 115.575 149.378 115.542 149.549 115.544ZM149.549 117.745C149.678 117.746 149.805 117.721 149.923 117.67C150.036 117.62 150.139 117.55 150.226 117.463C150.406 117.282 150.507 117.036 150.507 116.781C150.507 116.525 150.406 116.28 150.226 116.098C150.139 116.011 150.036 115.942 149.923 115.894C149.805 115.844 149.678 115.818 149.549 115.82C149.419 115.819 149.29 115.844 149.169 115.894C149.054 115.941 148.949 116.011 148.861 116.098C148.681 116.28 148.58 116.525 148.58 116.781C148.58 117.036 148.681 117.282 148.861 117.463C148.95 117.551 149.054 117.621 149.169 117.67C149.289 117.72 149.419 117.746 149.549 117.745ZM149.622 116.202C149.744 116.194 149.865 116.229 149.964 116.3C150.003 116.333 150.034 116.374 150.055 116.42C150.076 116.467 150.086 116.518 150.083 116.569C150.085 116.612 150.077 116.656 150.061 116.696C150.044 116.737 150.019 116.773 149.988 116.803C149.912 116.87 149.817 116.91 149.716 116.917L150.092 117.351H149.798L149.45 116.92H149.337V117.351H149.092V116.202H149.622ZM149.337 116.417V116.723H149.619C149.674 116.726 149.727 116.713 149.774 116.685C149.793 116.673 149.808 116.655 149.819 116.635C149.829 116.614 149.833 116.591 149.832 116.569C149.833 116.546 149.828 116.524 149.818 116.504C149.808 116.484 149.793 116.467 149.774 116.455C149.727 116.427 149.674 116.414 149.619 116.417H149.337ZM134.955 111.123C134.997 110.388 135.253 109.682 135.692 109.091C136.131 108.5 136.733 108.051 137.424 107.798C138.115 107.545 138.864 107.5 139.581 107.669C140.297 107.837 140.948 108.211 141.455 108.745C141.961 109.28 142.299 109.95 142.429 110.674C142.559 111.399 142.473 112.145 142.184 112.821C141.894 113.498 141.413 114.075 140.8 114.481C140.186 114.887 139.467 115.105 138.731 115.108C138.216 115.115 137.704 115.015 137.229 114.814C136.754 114.614 136.325 114.317 135.97 113.942C135.616 113.568 135.342 113.124 135.168 112.639C134.993 112.154 134.92 111.637 134.955 111.123ZM43.4863 111.123V104.898H40.7775V106.409C40.3152 105.813 39.7169 105.337 39.0327 105.02C38.3485 104.702 37.5982 104.554 36.8448 104.586C35.1664 104.668 33.584 105.393 32.4253 106.61C31.2665 107.827 30.6202 109.443 30.6202 111.123C30.6202 112.803 31.2665 114.419 32.4253 115.636C33.584 116.853 35.1664 117.578 36.8448 117.66C37.5983 117.692 38.3485 117.544 39.0327 117.227C39.7169 116.909 40.3152 116.433 40.7775 115.837V117.348H43.4863V111.123ZM33.4071 111.123C33.4491 110.388 33.7053 109.682 34.1439 109.091C34.5826 108.5 35.1845 108.051 35.8755 107.798C36.5665 107.545 37.3164 107.5 38.0327 107.669C38.749 107.837 39.4004 108.211 39.9065 108.745C40.4126 109.28 40.7514 109.95 40.8809 110.674C41.0105 111.399 40.9253 112.145 40.6358 112.821C40.3463 113.498 39.8651 114.075 39.2516 114.481C38.6381 114.887 37.9192 115.105 37.1834 115.108C36.6677 115.115 36.1561 115.015 35.6809 114.814C35.2057 114.614 34.7772 114.317 34.4224 113.942C34.0676 113.568 33.7943 113.124 33.6195 112.639C33.4448 112.154 33.3724 111.637 33.4071 111.123Z" fill="white"/>
<path d="M96.9988 10.022H55.9728V83.7467H96.9988V10.022Z" fill="#FF5F00"/>
<path d="M58.5773 46.8868C58.5708 39.7866 60.1798 32.7779 63.2824 26.3915C66.385 20.005 70.8999 14.408 76.4853 10.0244C69.5686 4.58767 61.2617 1.20665 52.5143 0.26778C43.7668 -0.671093 34.9317 0.870075 27.0187 4.71512C19.1057 8.56017 12.4342 14.554 7.76663 22.0114C3.09908 29.4689 0.62384 38.0891 0.62384 46.8868C0.62384 55.6845 3.09908 64.3047 7.76663 71.7622C12.4342 79.2197 19.1057 85.2134 27.0187 89.0585C34.9317 92.9035 43.7668 94.4447 52.5143 93.5058C61.2617 92.567 69.5686 89.1859 76.4853 83.7492C70.8999 79.3655 66.3851 73.7686 63.2825 67.3821C60.1799 60.9957 58.5709 53.987 58.5773 46.8868Z" fill="#EB001B"/>
<path d="M152.345 46.8868C152.345 55.6843 149.87 64.3046 145.203 71.762C140.536 79.2195 133.864 85.2133 125.952 89.0584C118.039 92.9035 109.204 94.4447 100.456 93.5058C91.7091 92.5669 83.4024 89.1859 76.4858 83.7492C82.0663 79.3611 86.5777 73.7633 89.6798 67.3778C92.7819 60.9923 94.3937 53.9859 94.3937 46.8868C94.3937 39.7877 92.7819 32.7813 89.6798 26.3958C86.5777 20.0103 82.0663 14.4125 76.4858 10.0244C83.4024 4.58766 91.7091 1.20663 100.456 0.267771C109.204 -0.67109 118.039 0.870106 125.952 4.7152C133.864 8.56028 140.536 14.5541 145.203 22.0116C149.87 29.469 152.345 38.0892 152.345 46.8868Z" fill="#F79E1B"/>
<path d="M147.872 75.939V74.4296H148.481V74.1222H146.931V74.4296H147.539V75.939H147.872ZM150.881 75.939V74.1191H150.406L149.86 75.3709L149.313 74.1191H148.838V75.939H149.173V74.5663L149.686 75.7498H150.033L150.546 74.5633V75.939H150.881Z" fill="#F79E1B"/>
</svg>
