<svg width="25" height="21" viewBox="0 0 25 21" fill="none" xmlns="http://www.w3.org/2000/svg">
<path d="M0.833252 1.75C0.833252 1.36323 0.986898 0.992295 1.26039 0.718804C1.53388 0.445314 1.90481 0.291668 2.29159 0.291668H22.7083C23.095 0.291668 23.466 0.445314 23.7395 0.718804C24.0129 0.992295 24.1666 1.36323 24.1666 1.75C24.1666 2.13678 24.0129 2.50771 23.7395 2.7812C23.466 3.05469 23.095 3.20833 22.7083 3.20833H2.29159C1.90481 3.20833 1.53388 3.05469 1.26039 2.7812C0.986898 2.50771 0.833252 2.13678 0.833252 1.75ZM0.833252 10.5C0.833252 10.1132 0.986898 9.74229 1.26039 9.4688C1.53388 9.19531 1.90481 9.04167 2.29159 9.04167H22.7083C23.095 9.04167 23.466 9.19531 23.7395 9.4688C24.0129 9.74229 24.1666 10.1132 24.1666 10.5C24.1666 10.8868 24.0129 11.2577 23.7395 11.5312C23.466 11.8047 23.095 11.9583 22.7083 11.9583H2.29159C1.90481 11.9583 1.53388 11.8047 1.26039 11.5312C0.986898 11.2577 0.833252 10.8868 0.833252 10.5ZM2.29159 17.7917C1.90481 17.7917 1.53388 17.9453 1.26039 18.2188C0.986898 18.4923 0.833252 18.8632 0.833252 19.25C0.833252 19.6368 0.986898 20.0077 1.26039 20.2812C1.53388 20.5547 1.90481 20.7083 2.29159 20.7083H22.7083C23.095 20.7083 23.466 20.5547 23.7395 20.2812C24.0129 20.0077 24.1666 19.6368 24.1666 19.25C24.1666 18.8632 24.0129 18.4923 23.7395 18.2188C23.466 17.9453 23.095 17.7917 22.7083 17.7917H2.29159Z" fill="white"/>
</svg>
