<svg width="89" height="105" viewBox="0 0 89 105" fill="none" xmlns="http://www.w3.org/2000/svg">
<path d="M25.2686 101.387L27.0874 89.8339L23.0359 89.74H3.68994L17.1344 4.49304C17.1762 4.23569 17.3118 3.99574 17.51 3.82533C17.7082 3.65493 17.9621 3.56104 18.2264 3.56104H50.8465C61.6758 3.56104 69.1492 5.81453 73.0511 10.2624C74.8803 12.349 76.0453 14.5295 76.6087 16.929C77.1999 19.4468 77.2103 22.455 76.633 26.1238L76.5913 26.3916V28.7425L78.4205 29.7788C79.9611 30.5961 81.1852 31.5315 82.1242 32.6026C83.6891 34.3867 84.7011 36.6541 85.1289 39.3423C85.5705 42.107 85.4245 45.3968 84.7011 49.1213C83.8665 53.4058 82.5172 57.1373 80.6949 60.1906C79.0187 63.004 76.8834 65.3375 74.3482 67.1459C71.9278 68.8638 69.0518 70.1679 65.8002 71.0025C62.6495 71.8233 59.0571 72.2371 55.117 72.2371H52.5783C50.763 72.2371 48.9999 72.8909 47.6158 74.0629C46.2282 75.2592 45.3101 76.8936 45.0284 78.6811L44.8371 79.7209L41.6238 100.082L41.4778 100.83C41.4395 101.067 41.3734 101.185 41.2761 101.265C41.1891 101.338 41.0639 101.387 40.9422 101.387H25.2686Z" fill="#253B80"/>
<path d="M80.1526 26.6628C80.0553 27.2853 79.944 27.9217 79.8188 28.5755C75.517 50.6619 60.7997 58.2918 42.0031 58.2918H32.4327C30.134 58.2918 28.197 59.9611 27.8388 62.2285L22.9388 93.3045L21.5513 102.113C21.3183 103.602 22.4659 104.944 23.9682 104.944H40.9425C42.9525 104.944 44.66 103.483 44.9765 101.501L45.1434 100.639L48.3394 80.3573L48.5445 79.2445C48.8575 77.2553 50.5685 75.7947 52.5786 75.7947H55.1173C71.5629 75.7947 84.4371 69.1176 88.1999 49.796C89.7717 41.7244 88.958 34.9848 84.7987 30.2448C83.5398 28.8155 81.9784 27.6296 80.1526 26.6628Z" fill="#179BD7"/>
<path d="M75.6517 24.8685C74.9944 24.6773 74.3163 24.5034 73.6208 24.3469C72.9218 24.1939 72.2054 24.0582 71.4681 23.94C68.8877 23.5227 66.0604 23.3245 63.0314 23.3245H37.4639C36.8345 23.3245 36.2363 23.467 35.7008 23.7244C34.5219 24.2912 33.6455 25.4076 33.4334 26.7743L27.9944 61.2236L27.8379 62.2286C28.1961 59.9612 30.1331 58.2919 32.4318 58.2919H42.0022C60.7988 58.2919 75.5161 50.6586 79.8179 28.5757C79.9466 27.9219 80.0544 27.2855 80.1517 26.663C79.0633 26.0857 77.8843 25.5919 76.615 25.1711C76.302 25.0668 75.9786 24.9659 75.6517 24.8685Z" fill="#222D65"/>
<path d="M33.4338 26.7742C33.6459 25.4075 34.5223 24.2912 35.7012 23.7278C36.2402 23.4705 36.8349 23.3279 37.4644 23.3279H63.0318C66.0609 23.3279 68.8882 23.5261 71.4686 23.9434C72.2058 24.0617 72.9222 24.1973 73.6212 24.3503C74.3167 24.5068 74.9949 24.6807 75.6521 24.8719C75.979 24.9693 76.3024 25.0702 76.6189 25.171C77.8882 25.5918 79.0672 26.0891 80.1556 26.6629C81.4354 18.5009 80.1452 12.9437 75.7321 7.91159C70.8669 2.37174 62.0859 0 50.8497 0H18.2297C15.9344 0 13.9765 1.66926 13.6218 3.94014L0.0347373 90.0634C-0.233039 91.7675 1.0815 93.3046 2.79945 93.3046H22.9384L27.9948 61.2235L33.4338 26.7742Z" fill="#253B80"/>
</svg>
