<svg width="153" height="98" viewBox="0 0 153 98" fill="none" xmlns="http://www.w3.org/2000/svg">
<path fill-rule="evenodd" clip-rule="evenodd" d="M145.188 0.103701L107.825 0.0939941C107.821 0.0939941 107.816 0.0939941 107.816 0.0939941C107.787 0.0939941 107.759 0.0991753 107.73 0.0991753C102.598 0.257688 96.2049 4.40757 95.0406 9.52471L77.3714 88.336C76.2072 93.5009 79.3746 97.7036 84.4702 97.781H123.721C128.739 97.5308 133.615 93.4286 134.759 88.3696L152.429 9.55771C153.612 4.34028 150.368 0.103701 145.188 0.103701Z" fill="#01798A"/>
<path fill-rule="evenodd" clip-rule="evenodd" d="M77.3714 88.3359L95.0405 9.52465C96.2048 4.40751 102.598 0.257628 107.73 0.0991163L92.875 0.0894097L66.1104 0.0842285C60.9633 0.190338 54.4873 4.36934 53.3235 9.52465L35.6491 88.3359C34.4805 93.5008 37.6526 97.7036 42.745 97.7809H84.4701C79.3746 97.7036 76.2071 93.5008 77.3714 88.3359Z" fill="#024381"/>
<path fill-rule="evenodd" clip-rule="evenodd" d="M35.6491 88.3359L53.3235 9.52468C54.4873 4.36935 60.9633 0.190364 66.1104 0.0842544L31.8232 0.0751953C26.6474 0.0751953 20.0114 4.30207 18.8285 9.52468L1.15419 88.3359C1.04663 88.8169 0.986956 89.2882 0.951355 89.7495V91.2116C1.29734 94.9766 4.14976 97.7182 8.24997 97.7809H42.745C37.6526 97.7036 34.4806 93.5008 35.6491 88.3359Z" fill="#DD0228"/>
<path fill-rule="evenodd" clip-rule="evenodd" d="M66.8332 57.5118H67.4821C68.0783 57.5118 68.4795 57.3102 68.6675 56.9108L70.3536 54.3671H74.869L73.9274 56.0402H79.3413L78.6545 58.6036H72.2124C71.4704 59.7288 70.5571 60.2578 69.4589 60.1951H66.1034L66.8332 57.5118ZM66.0918 61.1859H77.9529L77.1968 63.9705H72.4267L71.6989 66.6584H76.3406L75.5846 69.4427H70.9428L69.8645 73.4145C69.5975 74.0784 69.9486 74.3769 70.912 74.3092H74.695L73.9941 76.8967H66.7311C65.3543 76.8967 64.8821 76.1028 65.3139 74.5114L66.6925 69.4427H63.7255L64.4792 66.6584H67.4467L68.1739 63.9705H65.3376L66.0918 61.1859ZM85.0234 54.3479L84.8366 55.978C84.8366 55.978 87.0741 54.2847 89.1061 54.2847H96.615L93.7434 64.7631C93.5053 65.9611 92.4841 66.5568 90.6805 66.5568H82.1698L80.1762 73.9147C80.0614 74.309 80.2237 74.5111 80.6531 74.5111H82.3277L81.7122 76.7951H77.4549C75.8207 76.7951 75.141 76.2997 75.4106 75.3047L81.044 54.3479H85.0234ZM91.3821 57.3099H84.68L83.8784 60.1373C83.8784 60.1373 84.9945 59.325 86.8597 59.296C88.7197 59.2666 90.8429 59.296 90.8429 59.296L91.3821 57.3099ZM88.954 63.8691C89.4495 63.9369 89.7267 63.7392 89.7601 63.2727L90.1703 61.7823H83.4579L82.895 63.8691H88.954ZM84.4265 67.2544H88.2955L88.2237 68.9421H89.2538C89.7743 68.9421 90.0323 68.7741 90.0323 68.4425L90.3372 67.3506H93.5528L93.1234 68.9421C92.7602 70.2695 91.7974 70.962 90.2326 71.0297H88.1717L88.162 73.9147C88.1242 74.3767 88.5388 74.6122 89.3924 74.6122H91.3295L90.7043 76.8965H86.0581C84.7558 76.9589 84.1172 76.3334 84.1307 75.0065L84.4265 67.2544Z" fill="white"/>
<path fill-rule="evenodd" clip-rule="evenodd" d="M37.543 40.3873C37.0182 42.9793 35.8018 44.9701 33.9148 46.3839C32.045 47.7737 29.6333 48.4707 26.6807 48.4707C23.902 48.4707 21.8649 47.759 20.5649 46.3308C19.6633 45.3161 19.2148 44.0274 19.2148 42.4692C19.2148 41.825 19.2913 41.1325 19.444 40.3873L22.5899 25.0955H27.3413L24.2382 40.2141C24.1427 40.6326 24.1046 41.0221 24.1096 41.3732C24.1046 42.1476 24.2953 42.7821 24.6817 43.2772C25.2446 44.0132 26.1582 44.3784 27.4295 44.3784C28.8915 44.3784 30.0962 44.018 31.0311 43.2916C31.9663 42.5704 32.5768 41.5463 32.851 40.2141L35.964 25.0955H40.6913L37.543 40.3873Z" fill="white"/>
<path fill-rule="evenodd" clip-rule="evenodd" d="M57.4973 34.3716H61.2185L58.3036 48.0191H54.5898L57.4973 34.3716ZM58.6687 29.3994H62.423L61.7217 32.7121H57.9677L58.6687 29.3994Z" fill="white"/>
<path fill-rule="evenodd" clip-rule="evenodd" d="M64.5125 46.98C63.5392 46.0423 63.0478 44.7776 63.0431 43.1715C63.0431 42.8972 63.0596 42.5849 63.0957 42.2432C63.1316 41.8969 63.177 41.5603 63.2412 41.2479C63.6824 39.0311 64.6223 37.2711 66.07 35.9726C67.5154 34.6694 69.2593 34.0154 71.301 34.0154C72.9729 34.0154 74.299 34.4867 75.2701 35.4292C76.2405 36.3767 76.727 37.6556 76.727 39.2814C76.727 39.5599 76.7059 39.8821 76.6699 40.2284C76.6269 40.5794 76.5749 40.9161 76.5146 41.2479C76.0833 43.431 75.1462 45.1719 73.6982 46.4464C72.2502 47.7304 70.5115 48.3695 68.4839 48.3695C66.8049 48.3695 65.4834 47.908 64.5125 46.98ZM71.6038 44.2775C72.2598 43.561 72.7296 42.474 73.0159 41.0268C73.0589 40.8009 73.0968 40.5651 73.1205 40.3295C73.1442 40.0986 73.1539 39.8822 73.1539 39.6851C73.1539 38.8434 72.9414 38.1896 72.5146 37.7279C72.0904 37.2613 71.487 37.0308 70.7072 37.0308C69.6764 37.0308 68.8369 37.3958 68.179 38.1269C67.5153 38.8581 67.0455 39.964 66.7496 41.4355C66.7092 41.6615 66.6758 41.8876 66.645 42.1088C66.6213 42.3347 66.6142 42.5463 66.6187 42.7386C66.6187 43.5754 66.8311 44.2199 67.258 44.6766C67.6822 45.1335 68.283 45.3595 69.0731 45.3595C70.1084 45.3595 70.9479 44.9988 71.6038 44.2775Z" fill="white"/>
<path fill-rule="evenodd" clip-rule="evenodd" d="M100.87 57.6266L101.768 54.4433H106.304L106.108 55.6115C106.108 55.6115 108.427 54.4433 110.096 54.4433C111.766 54.4433 115.706 54.4433 115.706 54.4433L114.814 57.6266H113.932L109.7 72.6398H110.583L109.743 75.6214H108.861L108.494 76.9148H104.1L104.467 75.6214H95.7993L96.6439 72.6398H97.5123L101.748 57.6266H100.87ZM105.765 57.6268L104.61 61.69C104.61 61.69 106.586 60.9258 108.289 60.7094C108.665 59.2905 109.156 57.6268 109.156 57.6268L105.765 57.6268ZM104.076 63.5944L102.917 67.8502C102.917 67.8502 105.107 66.7634 106.609 66.6719C107.043 65.0271 107.477 63.5944 107.477 63.5944H104.076ZM104.925 72.6398L105.793 69.5526H102.407L101.534 72.6398H104.925ZM115.897 54.2463H120.162L120.343 55.8327C120.315 56.2366 120.553 56.4295 121.059 56.4295H121.812L121.05 59.1173H117.915C116.718 59.1797 116.102 58.7185 116.045 57.7227L115.897 54.2463ZM114.647 60.012H128.462L127.652 62.8974H123.253L122.499 65.5802H126.893L126.077 68.4609H121.183L120.076 70.1492H122.471L123.025 73.5296C123.091 73.8662 123.387 74.0297 123.892 74.0297H124.636L123.855 76.8135H121.221C119.857 76.8813 119.151 76.4196 119.093 75.4243L118.459 72.3371L116.279 75.6214C115.764 76.5494 114.971 76.9824 113.903 76.9149H109.882L110.664 74.1303H111.919C112.434 74.1303 112.863 73.8995 113.249 73.4332L116.661 68.4609H112.262L113.077 65.5802H117.848L118.607 62.8974H113.832L114.647 60.012Z" fill="white"/>
<path fill-rule="evenodd" clip-rule="evenodd" d="M41.9198 34.3665H45.2756L44.8918 36.3381L45.3734 35.7755C46.4613 34.6023 47.7826 34.0203 49.3426 34.0203C50.7546 34.0203 51.773 34.434 52.4123 35.2657C53.0419 36.0978 53.2136 37.2472 52.9158 38.7235L51.067 48.0236H47.6181L49.2876 39.5939C49.4596 38.7235 49.412 38.0742 49.1467 37.6556C48.8847 37.2374 48.3835 37.0308 47.661 37.0308C46.7737 37.0308 46.027 37.3094 45.4188 37.8626C44.8081 38.4204 44.4052 39.1948 44.2071 40.1804L42.6687 48.0236H39.2126L41.9198 34.3665Z" fill="white"/>
<path fill-rule="evenodd" clip-rule="evenodd" d="M80.4048 34.3665H83.7635L83.3823 36.3381L83.8585 35.7755C84.9471 34.6023 86.2731 34.0203 87.8283 34.0203C89.2403 34.0203 90.2609 34.434 90.895 35.2657C91.5208 36.0978 91.7018 37.2472 91.3963 38.7235L89.5548 48.0236H86.1011L87.7712 39.5939C87.9425 38.7235 87.895 38.0742 87.6325 37.6556C87.3604 37.2374 86.8687 37.0308 86.1492 37.0308C85.2616 37.0308 84.5177 37.3094 83.9022 37.8626C83.2911 38.4204 82.8862 39.1948 82.6955 40.1804L81.15 48.0236H77.6982L80.4048 34.3665" fill="white"/>
<path fill-rule="evenodd" clip-rule="evenodd" d="M97.0064 25.9031H106.757C108.632 25.9031 110.082 26.3314 111.079 27.1725C112.071 28.024 112.568 29.2455 112.568 30.8371V30.885C112.568 31.1878 112.548 31.5294 112.52 31.8995C112.471 32.2651 112.409 32.6351 112.329 33.0201C111.9 35.1264 110.902 36.8192 109.362 38.1032C107.816 39.3822 105.984 40.0267 103.876 40.0267H98.6469L97.0301 48.0238H92.5026L97.0064 25.9031ZM99.4434 36.1798H103.78C104.911 36.1798 105.807 35.9149 106.461 35.391C107.11 34.862 107.54 34.0543 107.778 32.9579C107.816 32.7554 107.839 32.573 107.868 32.4048C107.883 32.2462 107.902 32.0871 107.902 31.9337C107.902 31.1496 107.626 30.5822 107.072 30.2263C106.518 29.8653 105.651 29.6925 104.448 29.6925H100.765L99.4434 36.1798Z" fill="white"/>
<path fill-rule="evenodd" clip-rule="evenodd" d="M132.832 50.6637C131.401 53.7314 130.037 55.52 129.236 56.352C128.433 57.1747 126.846 59.0886 123.02 58.9441L123.349 56.6024C126.568 55.6022 128.31 51.0959 129.302 49.1005L128.119 34.4047L130.609 34.3711H132.698L132.923 43.5897L136.839 34.3711H140.804L132.832 50.6637Z" fill="white"/>
<path fill-rule="evenodd" clip-rule="evenodd" d="M121.746 35.4822L120.171 36.574C118.525 35.2757 117.023 34.4725 114.123 35.8284C110.173 37.6749 106.872 51.8372 117.748 47.1725L118.368 47.913L122.647 48.0237L125.457 35.1551L121.746 35.4822ZM119.313 42.5175C118.625 44.5614 117.09 45.9125 115.888 45.5278C114.686 45.1528 114.256 43.1809 114.953 41.1325C115.64 39.0838 117.185 37.7375 118.378 38.1222C119.58 38.4973 120.014 40.4688 119.313 42.5175Z" fill="white"/>
</svg>
