<svg width="151" height="50" viewBox="0 0 151 50" fill="none" xmlns="http://www.w3.org/2000/svg">
<path d="M74.7654 1.77615L64.6773 49.1667H52.4751L62.5642 1.77615H74.7654ZM126.099 32.3768L132.521 14.5807L136.217 32.3768H126.099ZM139.717 49.1667H151L141.143 1.77615H130.736C128.39 1.77615 126.413 3.14262 125.538 5.24988L107.23 49.1667H120.044L122.588 42.0891H138.24L139.717 49.1667ZM107.865 33.6953C107.918 21.1881 90.6581 20.4953 90.7738 14.9068C90.8109 13.2089 92.4233 11.4001 95.9472 10.9375C97.6943 10.7115 102.516 10.5282 107.981 13.0586L110.118 3.00512C107.183 1.93816 103.406 0.910645 98.7053 0.910645C86.6431 0.910645 78.1578 7.34862 78.0899 16.575C78.0125 23.3977 84.1513 27.2019 88.7667 29.4743C93.5254 31.7969 95.1198 33.286 95.0965 35.3613C95.0636 38.5408 91.302 39.9488 87.7993 40.0021C81.6616 40.0981 78.1037 38.3351 75.2682 37.007L73.0533 47.3962C75.9089 48.7094 81.1704 49.852 86.6186 49.9106C99.4425 49.9106 107.827 43.5484 107.865 33.6953ZM57.3303 1.77615L37.5604 49.1667H24.6644L14.9348 11.3457C14.345 9.01993 13.8306 8.16509 12.0368 7.18234C9.10263 5.58137 4.25906 4.0838 0 3.15221L0.288538 1.77615H21.0503C23.6948 1.77615 26.0742 3.54446 26.6799 6.60569L31.8194 34.031L44.5117 1.77615H57.3303Z" fill="#1434CB"/>
</svg>
